<?xml version="1.0" encoding="utf-8"?>
<!-- Generator: Adobe Illustrator 21.1.0, SVG Export Plug-In . SVG Version: 6.00 Build 0)  -->
<svg version="1.1" id="Layer_1" xmlns="http://www.w3.org/2000/svg" xmlns:xlink="http://www.w3.org/1999/xlink" x="0px" y="0px"
	 viewBox="0 0 400.053 150" style="enable-background:new 0 0 400.053 150;" xml:space="preserve">
<metadata><?xpacket begin="﻿" id="W5M0MpCehiHzreSzNTczkc9d"?>
<x:xmpmeta xmlns:x="adobe:ns:meta/" x:xmptk="Adobe XMP Core 5.6-c137 79.159768, 2016/08/11-13:24:42        ">
   <rdf:RDF xmlns:rdf="http://www.w3.org/1999/02/22-rdf-syntax-ns#">
      <rdf:Description rdf:about=""/>
   </rdf:RDF>
</x:xmpmeta>
                                                                                                    
                                                                                                    
                                                                                                    
                                                                                                    
                                                                                                    
                                                                                                    
                                                                                                    
                                                                                                    
                                                                                                    
                                                                                                    
                                                                                                    
                                                                                                    
                                                                                                    
                                                                                                    
                                                                                                    
                                                                                                    
                                                                                                    
                                                                                                    
                                                                                                    
                                                                                                    
                           
<?xpacket end="w"?></metadata>
<style type="text/css">
	.st0{fill:#00A7E1;}
	.st1{fill:#FFFFFF;}
</style>
<g id="XMLID_207_">
	<g id="XMLID_235_">
		<path id="XMLID_236_" d="M327.976,74.55v4.012c0,5.366,0.203,11.038,2.635,16.223c0.383,0.821,0.816,1.607,1.284,2.344
			c0.732-1.056,1.512-2.094,2.327-3.097c0.429-0.527,0.869-1.046,1.32-1.555c-0.273-0.58-0.523-1.197-0.744-1.847
			c-0.945-2.763-1.385-5.911-1.385-9.912v-6.284c-0.893,0.045-1.802,0.066-2.718,0.066C330.36,74.502,328.894,74.532,327.976,74.55z
			"/>
	</g>
	<g id="XMLID_232_">
		<path id="XMLID_233_" d="M296.078,89.637c-1.288,2.742-2.052,5.952-2.276,9.561c-0.239,3.913,0.309,7.502,1.629,10.67
			c1.195,2.861,3.052,5.69,5.844,8.901c0.544,0.622,1.094,1.235,1.654,1.841l0.816,0.882c0.078,0.083,0.326,0.336,0.524,0.532
			c1.506-0.146,3.145-0.549,4.651-1.146c0.414-0.166,0.81-0.348,1.18-0.546c-0.501-0.537-1.013-1.071-1.525-1.605
			c-2.697-2.818-5.486-5.734-7.352-9.301c-1.332-2.536-2.011-5.313-2.024-8.253c-0.013-3.086,0.438-5.829,1.341-8.166
			C299.082,91.732,297.584,90.602,296.078,89.637z"/>
	</g>
	<g id="XMLID_229_">
		<path id="XMLID_230_" d="M343.059,88.554l-0.279,0.239c-5.838,5.029-10.087,10.515-12.631,16.303
			c-1.595,3.63-2.217,6.959-1.902,10.178c0.33,3.383,1.618,6.389,3.723,8.694c0.294,0.325,0.609,0.642,0.947,0.946
			c0.664-0.894,1.383-1.798,2.143-2.699c0.451-0.536,0.872-1.016,1.316-1.511c-5.928-5.647-0.926-14.75,1.567-18.486
			c1.99-2.982,4.384-5.736,7.117-8.186c0.542-0.489,1.093-0.97,1.652-1.445c-0.315-0.599-0.673-1.162-1.072-1.677
			c-0.463-0.597-0.996-1.148-1.593-1.64c-0.303-0.246-0.618-0.477-0.945-0.69C343.088,88.571,343.073,88.563,343.059,88.554z"/>
	</g>
	<g id="XMLID_226_">
		<path id="XMLID_227_" d="M289.238,129.032c0.414,0.089,0.914,0.194,1.29,0.264c0.979,0.186,1.957,0.34,2.942,0.465
			c1.916,0.242,3.868,0.375,5.798,0.393l0.501,0.003c8.031,0,14.029-1.894,17.832-5.631c2.802-2.758,4.346-6.699,4.346-11.098
			c0-4.481-2.204-8.792-4.108-11.88c-0.376,0.404-0.77,0.792-1.18,1.162c-0.821,0.8-1.838,1.564-3.079,2.315
			c1.618,2.732,3.109,5.914,2.894,9.279c-0.218,3.396-1.868,6.183-4.649,7.843c-2.132,1.271-4.723,2.026-8.158,2.38
			c-3.553,0.366-7.365,0.229-11.185-0.405c-3.023-0.499-5.988-1.316-8.841-2.431c1.428,2.392,3.105,4.65,5.002,6.735
			C288.809,128.607,289.071,128.869,289.238,129.032z"/>
	</g>
	<g id="XMLID_223_">
		<path id="XMLID_224_" d="M302.923,81.845c1.056,0.733,2.096,1.513,3.095,2.328c0.529,0.428,1.047,0.869,1.557,1.316
			c0.59-0.275,1.21-0.523,1.847-0.742c2.752-0.942,5.903-1.381,9.916-1.384h6.28c-0.076-1.592-0.074-3.188-0.068-4.741v-0.698
			h-2.987c-4.531,0-9.666,0-14.438,1.519C306.22,80.051,304.475,80.856,302.923,81.845z"/>
	</g>
	<g id="XMLID_220_">
		<path id="XMLID_221_" d="M324.552,72.075l3.464,0.001l0,0c4.677,0,8.881-0.092,12.999-1.232c2.286-0.633,4.353-1.535,6.166-2.687
			c-1.058-0.733-2.096-1.513-3.097-2.327c-0.529-0.43-1.049-0.869-1.557-1.317c-0.592,0.277-1.21,0.525-1.848,0.742
			c-2.754,0.943-5.907,1.381-9.916,1.381h-6.278c0.074,1.554,0.072,3.111,0.068,4.624V72.075z"/>
	</g>
	<g id="XMLID_217_">
		<path id="XMLID_218_" d="M293.678,85.54c1.398,0.655,2.817,1.457,4.156,2.351c2.934,1.956,5.637,4.293,8.033,6.947
			c0.544,0.599,1.075,1.206,1.599,1.822c0.167-0.088,0.323-0.172,0.402-0.219c0.391-0.222,0.77-0.47,1.13-0.739
			c0.558-0.418,1.074-0.894,1.534-1.411c0.252-0.291,0.495-0.6,0.723-0.92c0.049-0.073,0.144-0.215,0.241-0.366
			c-4.566-5.325-9.497-9.358-14.675-11.998C295.989,82.645,294.936,84.163,293.678,85.54z"/>
	</g>
	<g id="XMLID_214_">
		<path id="XMLID_215_" d="M293.949,52.351c0.028,0.273,0.059,0.56,0.08,0.716c0.224,1.741,0.59,3.386,1.085,4.892
			c1.343,4.082,3.831,7.472,7.2,9.804c3.13,2.164,7.143,3.526,11.948,4.051v-2.518c0-0.896-0.027-1.793-0.085-2.689l-0.023-0.287
			c-0.455-0.06-0.907-0.131-1.362-0.212c-2.02-0.361-3.744-0.887-5.265-1.601c-3.075-1.444-5.398-3.819-6.722-6.869
			c-0.588-1.344-1.017-2.868-1.282-4.531c-0.07-0.431-0.127-0.868-0.171-1.305c-0.008-0.062-0.015-0.14-0.023-0.226
			c-0.74-0.024-1.479-0.01-2.215,0.069c-0.819,0.086-1.624,0.243-2.396,0.466C294.46,52.184,294.204,52.262,293.949,52.351z"/>
	</g>
	<g id="XMLID_211_">
		<path id="XMLID_212_" d="M301.626,100.72c-0.017,0.625-0.021,1.397,0.063,2.165c0.084,0.755,0.199,1.41,0.353,1.998
			c0.091,0.368,0.197,0.726,0.317,1.079l0.045,0.14c0.002,0.005,0.004,0.01,0.004,0.013c1.603-0.191,3.293-0.509,4.532-0.856
			c2.959-0.83,5.516-2.147,7.599-3.914c5.034-4.29,6.777-10.672,7.325-15.559l-1.692-0.006c-0.873,0-1.741,0.01-2.612,0.046
			c-0.393,0.017-0.791,0.041-1.185,0.069c-0.015,0.115-0.031,0.221-0.042,0.3c-0.154,1.075-0.347,2.054-0.592,2.99
			c-0.434,1.646-1.032,3.143-1.779,4.446c-1.464,2.554-3.686,4.49-6.597,5.751c-1.21,0.523-2.644,0.905-4.382,1.168
			c-0.446,0.069-0.895,0.122-1.343,0.167C301.635,100.72,301.63,100.72,301.626,100.72z"/>
	</g>
	<g id="XMLID_208_">
		<path id="XMLID_209_" d="M315.451,59.818c0.296,0.945,0.537,1.939,0.726,3.02c0.374,2.132,0.44,4.288,0.506,6.372l0.015,0.525
			c0.046,1.424,0.027,2.9,0.008,4.329c-0.006,0.502-0.013,1.003-0.017,1.502c1.151-0.053,2.327-0.065,3.678-0.065l1.76,0.005v-6.149
			c0-4.383-0.505-8.094-1.54-11.322C318.577,58.349,316.919,58.924,315.451,59.818z"/>
	</g>
</g>
<g id="XMLID_168_">
	<g id="XMLID_204_">
		<path id="XMLID_205_" d="M329.226,42.273c0.808,0.267,1.582,0.558,2.344,0.842c1.586,0.594,3.103,1.16,4.714,1.45
			c-1.523-2.636-2.858-5.668-2.657-8.865c0.216-3.397,1.87-6.183,4.655-7.845c2.126-1.268,4.715-2.024,8.154-2.378
			c3.409-0.352,7.062-0.238,10.742,0.333c3.179,0.491,6.293,1.331,9.287,2.5c-1.436-2.399-3.115-4.657-5.004-6.732
			c-0.171-0.184-0.415-0.44-0.575-0.602c-0.442-0.103-0.935-0.198-1.315-0.271c-0.975-0.183-1.957-0.338-2.938-0.461
			c-1.914-0.244-3.864-0.376-5.798-0.394l-0.512-0.002c-7.948,0-13.689,1.758-17.553,5.376c-2.925,2.737-4.564,6.695-4.613,11.143
			C328.137,38.236,328.49,40.172,329.226,42.273z"/>
	</g>
	<g id="XMLID_201_">
		<path id="XMLID_202_" d="M349.563,56.995c0.332,0.287,0.67,0.573,1.013,0.852c1.119,0.912,2.28,1.758,3.452,2.515
			c1.908-4.035,2.697-8.938,2.223-13.909c-0.432-4.545-2.426-9.057-5.922-13.416c-0.783-0.98-1.669-2.009-2.703-3.147
			c-0.463-0.512-0.931-1.018-1.398-1.522l-0.355-0.377c-0.192,0.026-0.38,0.053-0.571,0.083c-2.191,0.336-3.902,0.849-5.303,1.598
			c0.459,0.488,0.926,0.981,1.396,1.476c4.211,4.424,8.562,8.998,9.378,15.249c0.345,2.63,0.144,5.657-0.563,8.523
			C350.034,55.638,349.815,56.336,349.563,56.995z"/>
	</g>
	<g id="XMLID_198_">
		<path id="XMLID_199_" d="M299.742,19.786c-3.93,0-8.027,0.529-12.174,1.572c-6.007,1.511-11.618,4.11-16.677,7.725
			c-8.179,5.839-14.474,14.167-17.894,23.611c1.768-0.964,3.592-1.832,5.379-2.679c0.732-0.348,1.468-0.696,2.2-1.054l0.053-0.105
			c0.129-0.25,0.254-0.499,0.391-0.744c3.046-5.484,7.329-10.367,12.394-14.125c1.766-1.313,3.615-2.489,5.505-3.499
			c0.489-0.265,0.986-0.516,1.489-0.761c0.059-0.028,0.142-0.079,0.239-0.133c0.415-0.237,0.711-0.396,0.992-0.443
			c4.861-2.184,10.03-3.456,15.371-3.781c1.324-0.078,2.648-0.104,3.976-0.065c0.573,0.016,1.601,0.08,2.312,0.135l0.017-0.016
			c0.161-0.16,0.315-0.329,0.467-0.496l0.245-0.266c1.193-1.28,2.441-2.636,3.617-4.076
			C305.167,20.054,302.515,19.786,299.742,19.786z"/>
	</g>
	<g id="XMLID_181_">
		<g id="XMLID_195_">
			<path id="XMLID_196_" d="M327.792,150h2.911c3.077-0.013,6.161-0.308,9.165-0.882c11.614-2.213,22.096-8.554,29.51-17.857
				c0.855-1.073,1.675-2.191,2.445-3.342c-2.204,0.978-4.647,1.953-7.219,2.682c-0.81,0.231-1.626,0.44-2.447,0.632
				c-0.535,0.55-1.089,1.086-1.654,1.607c-1.184,1.094-2.451,2.142-3.765,3.11c-5.328,3.93-11.569,6.648-18.048,7.857
				c-1.324,0.247-2.724,0.436-4.404,0.597l-0.975,0.093l0.133-0.971c0.486-3.539,1.449-6.639,2.944-9.474
				c1.331-2.533,3.168-5.084,5.778-8.028c1.051-1.196,2.147-2.368,3.243-3.541c3.536-3.775,7.189-7.681,9.226-12.524
				c0.211-0.505,0.402-1.01,0.573-1.513c-1.163,0.177-2.337,0.272-3.505,0.284l-0.387,0.003c-0.69,0-1.377-0.021-2.064-0.06
				c-0.049,0.104-0.1,0.207-0.152,0.306c-0.228,0.461-0.482,0.915-0.751,1.361c-1.806,3.016-4.232,5.596-6.578,8.092l-0.506,0.54
				c-4.378,4.671-8.856,9.757-11.276,16.027c-1.161,3.005-1.868,6.236-2.104,9.601c-0.112,1.572-0.102,3.19-0.097,4.756L327.792,150
				z"/>
		</g>
		<g id="XMLID_192_">
			<path id="XMLID_193_" d="M339.696,103.977c2.344,1.105,5.03,1.824,7.995,2.141c3.61,0.388,6.849,0.18,9.689-0.616
				c2.775-0.775,5.58-2.196,8.338-4.223c1.25-0.919,2.515-1.965,4.103-3.393c0.687-0.614,1.358-1.236,2.03-1.862l0.241-0.226
				c-0.006-0.051-0.01-0.104-0.013-0.156c-0.038-0.414-0.108-0.829-0.193-1.241c-0.288-1.399-0.71-3.103-1.476-4.475
				c-0.474,0.44-0.945,0.884-1.415,1.326c-1.715,1.613-3.486,3.28-5.372,4.778c-2.424,1.925-4.56,3.172-6.717,3.923
				c-2.05,0.722-4.372,0.991-6.918,0.873c-2.714-0.137-4.977-0.565-6.925-1.312c-0.197,0.225-0.406,0.464-0.537,0.622
				c-0.448,0.534-0.874,1.082-1.292,1.635C340.709,102.47,340.201,103.197,339.696,103.977z"/>
		</g>
		<g id="XMLID_189_">
			<path id="XMLID_190_" d="M363.694,83.556c0.218,0,0.436,0.007,0.656,0.02c3.399,0.216,6.185,1.869,7.847,4.654
				c1.413,2.373,2.198,5.323,2.475,9.289c0.243,3.503,0.038,7.109-0.615,10.716c-0.505,2.788-1.284,5.531-2.318,8.179
				c2.39-1.429,4.647-3.106,6.73-5.002c0.186-0.168,0.451-0.443,0.615-0.614c0.087-0.411,0.19-0.895,0.262-1.276
				c0.182-0.976,0.338-1.958,0.463-2.944c0.243-1.897,0.372-3.848,0.393-5.798c0.082-8.376-1.853-14.585-5.757-18.456
				c-2.231-2.213-5.178-3.618-8.524-4.061c-3.365-0.44-6.802,0.174-10.538,1.902c-1.225,0.571-2.47,1.244-3.782,2.048
				c1.35,1.261,2.515,2.688,3.479,4.259C357.609,84.969,360.557,83.556,363.694,83.556z"/>
		</g>
		<g id="XMLID_186_">
			<path id="XMLID_187_" class="st0" d="M338.606,56.989c0.028,0.036,0.059,0.073,0.089,0.106
				c4.897,5.712,10.229,9.93,15.849,12.537c3.27,1.518,6.261,2.256,9.135,2.256l0,0c0.345,0,0.69-0.01,1.034-0.032
				c3.431-0.223,6.493-1.394,8.86-3.385c0.486-0.406,0.948-0.851,1.388-1.331c-2.178-1.592-3.156-2.446-3.573-2.953l-0.023,0.025
				c-0.207-0.178-0.41-0.358-0.615-0.538c-1.758,1.841-4.016,2.773-6.724,2.773h-0.002c-4.573,0-9.329-2.717-11.758-4.337
				c-2.976-1.987-5.73-4.382-8.187-7.119c-0.488-0.544-0.969-1.095-1.443-1.65c-0.598,0.311-1.157,0.666-1.666,1.058
				c-0.554,0.428-1.068,0.92-1.523,1.458c-0.256,0.3-0.491,0.61-0.71,0.93C338.702,56.842,338.657,56.912,338.606,56.989z"/>
		</g>
		<g id="XMLID_184_">
			<path id="XMLID_185_" d="M335.948,83.688c0.394,0.052,0.816,0.109,1.142,0.167c2.018,0.344,3.748,0.852,5.292,1.552
				c3.12,1.415,5.489,3.769,6.851,6.805c0.594,1.324,1.036,2.83,1.313,4.476c0.072,0.426,0.131,0.855,0.182,1.285l0.026,0.284
				c0.008,0.054,0.011,0.107,0.015,0.162c0.742,0.016,1.544,0.011,2.221-0.061c0.821-0.087,1.629-0.245,2.396-0.466
				c0.22-0.064,0.499-0.155,0.768-0.248c-0.025-0.238-0.051-0.473-0.083-0.708c-0.22-1.738-0.586-3.384-1.083-4.892
				c-1.343-4.084-3.831-7.474-7.2-9.804c-3.13-2.164-7.147-3.529-11.95-4.053v2.48c0,0.836,0.025,1.672,0.072,2.506
				C335.922,83.345,335.933,83.519,335.948,83.688z"/>
		</g>
		<g id="XMLID_182_">
			<path id="XMLID_183_" d="M358.755,49.996c-0.008,0.266-0.019,0.528-0.034,0.793c0.286,0.149,0.618,0.321,0.698,0.365
				c3.331,1.769,6.092,4.351,8.763,6.848c4.602,4.304,9.359,8.755,15.32,11.419c2.906,1.298,6.018,2.16,9.258,2.563
				c2.041,0.253,4.082,0.274,6.347,0.274h0.941v-2.399c0-2.817-0.201-5.526-0.598-8.052c-1.83-11.696-7.828-22.388-16.891-30.106
				c-1.441-1.225-2.955-2.374-4.528-3.429c1.17,2.595,2.13,5.299,2.862,8.066c0.103,0.384,0.273,1.069,0.387,1.534
				c0.087,0.098,0.224,0.243,0.391,0.412c0.599,0.596,1.18,1.212,1.745,1.845c1.077,1.213,2.102,2.499,3.042,3.822
				c3.839,5.399,6.445,11.697,7.542,18.214c0.176,1.064,0.319,2.209,0.455,3.603l0.093,0.977l-0.973-0.135
				c-3.536-0.487-6.637-1.449-9.478-2.943c-2.411-1.271-4.818-2.982-7.57-5.382c-1.301-1.133-2.583-2.339-3.828-3.503
				c-3.68-3.454-7.489-7.024-12.139-9.123c-0.683-0.307-1.373-0.58-2.068-0.815c0.148,1.004,0.239,2.087,0.279,3.32
				C358.793,48.775,358.776,49.387,358.755,49.996z"/>
		</g>
	</g>
	<g id="XMLID_178_">
		<path id="XMLID_179_" d="M276.96,54.717c0.017,0.01,0.036,0.021,0.055,0.029c0.148,0.084,0.294,0.171,0.429,0.273
			c1.639,1.258,2.53,2.679,3.395,4.053c0.023,0.038,0.047,0.075,0.07,0.113c0.761-0.722,1.487-1.447,2.198-2.159
			c3.593-3.593,6.984-6.987,12.826-7.745c1.081-0.197,2.659-0.172,4.086-0.081c1.593,0.091,3.088,0.307,4.438,0.641
			c0.736,0.181,1.434,0.398,2.077,0.647l0.021-0.022c0.334-0.387,0.664-0.784,0.986-1.186c0.909-1.127,1.686-2.197,2.363-3.252
			c-2.352-1.108-5.04-1.828-8.001-2.144c-3.528-0.377-6.688-0.192-9.465,0.552c-2.811,0.753-5.641,2.158-8.414,4.175
			c-1.231,0.895-2.49,1.93-4.084,3.353c-0.685,0.61-1.36,1.234-2.031,1.859l-0.675,0.626
			C277.14,54.533,277.041,54.628,276.96,54.717z"/>
	</g>
	<g id="XMLID_175_">
		<path id="XMLID_176_" d="M313.217,29.297c4.275,4.016,3.968,10.173-0.905,17.441c-0.194,0.289-0.484,0.725-0.801,1.192
			c1.719-0.754,3.185-1.736,4.619-2.693c1.366-0.914,2.773-1.857,4.363-2.573c0.561-2.08,1.036-5.262,0.903-7.326
			c-0.222-3.423-1.392-6.486-3.388-8.861c-0.402-0.482-0.85-0.946-1.332-1.387c-0.66,0.883-1.366,1.772-2.145,2.696
			C314.08,28.319,313.661,28.8,313.217,29.297z"/>
	</g>
	<g id="XMLID_172_">
		<path id="XMLID_173_" d="M316.791,5.505l-0.133,0.972c-0.484,3.533-1.445,6.632-2.94,9.474c-1.269,2.408-2.978,4.816-5.381,7.575
			c-1.132,1.301-2.339,2.584-3.503,3.828c-3.547,3.778-7.212,7.687-9.287,12.506c-0.239,0.555-0.455,1.119-0.649,1.69
			c1.848-0.283,3.866-0.327,5.871-0.225l0.082,0.006c0.017-0.036,0.034-0.071,0.053-0.105c0.224-0.467,0.47-0.923,0.736-1.37
			c1.813-3.091,4.283-5.721,6.675-8.264l0.366-0.392c4.524-4.825,8.786-9.656,11.233-15.686c1.203-2.96,1.961-6.148,2.257-9.473
			c0.156-1.783,0.148-3.621,0.14-5.399V0l-2.701,0.004c-2.968,0-5.941,0.261-8.831,0.779c-11.639,2.086-22.187,8.311-29.706,17.526
			c-0.971,1.192-1.891,2.434-2.752,3.716c2.686-1.21,5.463-2.191,8.281-2.922c0.243-0.064,0.486-0.123,0.732-0.182l0.592-0.146
			l0.006,0.006c0.666-0.654,1.811-1.755,2.392-2.27c1.222-1.078,2.511-2.097,3.837-3.031c5.419-3.815,11.732-6.394,18.257-7.456
			c0.979-0.161,2.03-0.291,3.399-0.424L316.791,5.505z"/>
	</g>
	<g id="XMLID_169_">
		<path id="XMLID_170_" d="M329.886,63.224h2.153c0.833,0,1.663-0.025,2.49-0.08l0.032-0.002c0.051-0.363,0.108-0.724,0.173-1.087
			c0.349-1.951,0.859-3.624,1.559-5.111c1.392-2.961,3.665-5.212,6.574-6.515c1.292-0.579,2.754-1.009,4.351-1.277
			c0.414-0.07,0.829-0.127,1.244-0.176l0.182-0.019c0-0.506-0.011-1.008-0.038-1.409c-0.072-1.071-0.281-2.132-0.622-3.162
			c-1.419,0.16-2.773,0.417-4.031,0.764c-4.171,1.149-7.627,3.466-9.994,6.7C331.802,54.797,330.432,58.618,329.886,63.224z"/>
	</g>
</g>
<g id="XMLID_163_">
	<path id="XMLID_167_" d="M294.166,136.497c-1.449-1.059-2.623-1.992-3.517-2.75C291.772,134.724,292.948,135.639,294.166,136.497z"
		/>
	<path id="XMLID_166_" d="M294.166,136.497c-1.218-0.858-2.394-1.772-3.517-2.75c-1.497-1.262-2.251-2.041-2.251-2.041
		s0.044,0.022,0.112,0.055c-2.965-2.937-5.542-6.278-7.591-9.934c-2.773-4.943-4.594-10.567-5.269-16.265
		c-0.288-2.41-0.378-4.758-0.266-6.999c-1.859,0.679-4.025,1.017-5.899,0.909c-0.239,4.799,0.764,8.618,2.018,13.388
		c1.779,6.779,5.006,13.171,9.347,18.564c8.266,10.266,20.48,16.937,33.501,18.302c1.868,0.197,3.778,0.215,5.626,0.232
		c0.266,0.002,0.535,0.009,0.801,0.011c-1.205-0.393-3.111-1.055-5.679-2.085C305.453,144.016,298.545,139.701,294.166,136.497z"/>
	<path id="XMLID_165_" d="M321.919,142.634c0.032-0.016,0.053-0.019,0.089-0.034c-0.645-5.023-2.435-9.801-5.343-14.213
		c-1.451,0.966-3.105,1.775-4.928,2.41c0,0-0.006,0.001-0.008,0.003c2.422,3.564,4.048,7.593,4.765,11.758
		C318.911,143.053,320.848,143.157,321.919,142.634z"/>
	<path id="XMLID_164_" class="st1" d="M290.649,133.746c-0.736-0.637-1.445-1.302-2.139-1.986c-0.068-0.033-0.112-0.055-0.112-0.055
		S289.152,132.484,290.649,133.746z"/>
</g>
<g id="XMLID_159_">
	<g id="XMLID_161_">
		<path id="XMLID_162_" d="M333.33,5.657c-1.87-0.105-3.752-0.028-5.36,0.396c0.068,0.891,0.156,1.78,0.303,2.659
			c0.755,4.515,2.491,8.852,5.163,12.904c1.453-0.97,3.107-1.78,4.932-2.417c-2.638-3.868-4.293-8.143-4.924-12.724L333.33,5.657z"
			/>
	</g>
	<path id="XMLID_160_" d="M378.781,37.881c-1.43-5.874-3.903-11.386-7.352-16.385c-6.692-9.695-16.612-16.719-27.932-19.778
		c-3.312-0.895-6.745-1.446-10.197-1.64c-0.44-0.024-0.878-0.033-1.313-0.045c0.461,0.178,0.941,0.365,1.455,0.572
		c18.15,7.281,26.701,16.18,26.701,16.18s-0.083-0.047-0.216-0.12c2.295,2.051,4.393,4.332,6.218,6.807
		c1.256,1.694,2.394,3.485,3.38,5.321c0.273,0.507,0.546,1.044,0.8,1.571c0.184,0.371,0.436,0.88,0.535,1.137
		c2.166,4.783,3.454,9.921,3.809,15.233c0.085,1.346,0.114,2.681,0.082,3.969c-0.013,0.683-0.047,1.369-0.1,2.054
		c-0.011,0.161-0.027,0.324-0.042,0.487l0.472,0.443c1.379,1.291,2.839,2.642,4.383,3.91
		C381.058,50.197,379.995,42.848,378.781,37.881z"/>
</g>
<g id="XMLID_156_">
	<path id="XMLID_158_" d="M393.789,77.931c-1.923,0.181-3.782,0.491-5.535,0.961c-3.361,0.902-6.658,2.411-9.81,4.488
		c0.56,0.836,1.011,1.701,1.358,2.403c0.395,0.793,0.747,1.641,1.055,2.533c3.873-2.64,8.149-4.296,12.72-4.924l0.277-0.038
		C394.316,80.961,394.377,79.019,393.789,77.931z"/>
	<path id="XMLID_157_" d="M398.762,81.991c-6.407,18.476-14.89,27.44-14.89,27.44s0.046-0.095,0.123-0.252
		c-2.121,2.478-4.505,4.734-7.103,6.685c-1.654,1.242-3.448,2.397-5.478,3.525c-0.544,0.298-1.132,0.598-1.698,0.874
		c-0.241,0.132-0.996,0.472-1.136,0.533c-4.81,2.18-9.951,3.467-15.256,3.82c-1.32,0.087-2.654,0.117-3.974,0.086
		c-0.687-0.016-1.373-0.05-2.056-0.104c-0.163-0.012-0.326-0.027-0.486-0.042l-0.421,0.448c-1.362,1.461-2.693,2.904-3.932,4.411
		c2.481,0.53,5.134,0.799,7.908,0.799h0.004c3.809,0,7.773-0.497,11.783-1.478c6.108-1.492,11.798-4.09,16.918-7.717
		c9.596-6.803,16.489-16.79,19.412-28.12c0.747-2.897,1.235-5.899,1.447-8.923c0.129-1.841,0.127-3.73,0.125-5.557v-0.394
		C399.726,79.108,399.309,80.42,398.762,81.991z"/>
</g>
<g id="XMLID_84_">
	<path id="XMLID_153_" class="st0" d="M0,101.52h4.367c3.058,0,4.664,1.411,4.664,3.873c0,2.375-1.567,3.927-4.664,3.927H2.523
		v3.819H0V101.52z M4.228,107.75c1.569,0,2.122-0.571,2.122-2.142v-0.358c0-1.517-0.594-1.999-2.16-1.999H2.523v4.498H4.228z"/>
	<path id="XMLID_150_" class="st0" d="M15.956,106.608c0-0.768-0.338-1.304-1.489-1.304c-0.912,0-1.944,0.25-3.173,0.626
		l-0.319-1.571c0.872-0.375,2.162-0.821,3.71-0.821c2.582,0,3.573,1.054,3.573,3.802v4.124c0,0.446,0.199,0.553,0.596,0.553h0.476
		l0.04,0.928c-0.22,0.179-0.656,0.412-1.37,0.412c-0.376,0-0.755-0.055-1.072-0.143l-0.855-1.054l-0.793,0.893
		c-0.396,0.16-0.99,0.338-1.825,0.338c-1.529,0-2.917-0.713-2.917-2.694c0-1.98,1.093-2.659,3.888-3.017l1.529-0.177V106.608z
		 M15.956,108.696l-1.37,0.178c-1.33,0.162-1.846,0.517-1.846,1.588v0.143c0,0.965,0.575,1.375,1.569,1.375
		c0.831,0,1.309-0.286,1.646-0.608V108.696z"/>
	<path id="XMLID_148_" class="st0" d="M24.924,103.823c0.436-0.177,0.873-0.286,1.43-0.286c0.633,0,1.051,0.161,1.267,0.304
		l-0.394,1.874c-0.357-0.142-0.774-0.231-1.468-0.231c-0.715,0-1.311,0.214-1.885,0.481v7.176h-2.322v-9.406h1.527l0.755,1.356
		L24.924,103.823z"/>
	<path id="XMLID_146_" class="st0" d="M30.242,110.569v-5.372h-1.21v-1.464h1.388l1.112-2.552h1.032v2.552h2.244v1.464h-2.244v5.855
		c0,0.606,0.239,0.785,0.994,0.785h1.428l0.119,1.124c-0.459,0.178-1.252,0.394-2.204,0.394
		C31.056,113.355,30.242,112.408,30.242,110.569z"/>
	<path id="XMLID_143_" class="st0" d="M37.226,101.217c0-0.732,0.636-1.196,1.39-1.196c0.734,0,1.37,0.464,1.37,1.196
		c0,0.748-0.635,1.196-1.37,1.196C37.862,102.413,37.226,101.966,37.226,101.217z M37.446,103.734h2.322v9.406h-2.322V103.734z"/>
	<path id="XMLID_141_" class="st0" d="M42.367,108.445c0-3.229,1.487-4.908,4.287-4.908c1.271,0,2.322,0.304,2.936,0.589
		l-0.357,1.572c-0.816-0.232-1.588-0.429-2.422-0.429c-1.349,0-2.043,0.5-2.043,2.963v0.339c0,2.482,0.694,3.16,2.043,3.16
		c0.973,0,1.766-0.286,2.559-0.59l0.3,1.553c-0.634,0.32-1.669,0.695-3.016,0.695C43.854,113.389,42.367,111.641,42.367,108.445z"/>
	<path id="XMLID_139_" class="st0" d="M57.448,103.734h2.323v9.406h-1.529l-0.755-1.178l-0.933,1.073
		c-0.516,0.177-1.149,0.32-1.866,0.32c-1.806,0-2.817-1.018-2.817-3.053v-6.569h2.322v6.748c0,0.982,0.495,1.302,1.311,1.302
		c0.793,0,1.33-0.196,1.944-0.536V103.734z"/>
	<path id="XMLID_137_" class="st0" d="M63.025,100.325h2.32v12.815h-2.32V100.325z"/>
	<path id="XMLID_134_" class="st0" d="M73.383,106.608c0-0.768-0.338-1.304-1.491-1.304c-0.911,0-1.942,0.25-3.175,0.626
		l-0.319-1.571c0.876-0.375,2.166-0.821,3.714-0.821c2.58,0,3.573,1.054,3.573,3.802v4.124c0,0.446,0.197,0.553,0.594,0.553h0.476
		l0.038,0.928c-0.216,0.179-0.652,0.412-1.366,0.412c-0.377,0-0.755-0.055-1.074-0.143l-0.854-1.054l-0.793,0.893
		c-0.398,0.16-0.994,0.338-1.825,0.338c-1.531,0-2.917-0.713-2.917-2.694c0-1.98,1.091-2.659,3.888-3.017l1.529-0.177V106.608z
		 M73.383,108.696l-1.371,0.178c-1.33,0.162-1.846,0.517-1.846,1.588v0.143c0,0.965,0.577,1.375,1.569,1.375
		c0.833,0,1.311-0.286,1.648-0.608V108.696z"/>
	<path id="XMLID_132_" class="st0" d="M79.136,110.569v-5.372h-1.212v-1.464h1.392l1.11-2.552h1.034v2.552h2.24v1.464h-2.24v5.855
		c0,0.606,0.237,0.785,0.99,0.785h1.43l0.118,1.124c-0.455,0.178-1.248,0.394-2.202,0.394
		C79.95,113.355,79.136,112.408,79.136,110.569z"/>
	<path id="XMLID_129_" class="st0" d="M90.348,111.73c1.013,0,1.904-0.286,2.781-0.59l0.315,1.535
		c-0.615,0.303-1.844,0.713-3.253,0.713c-3.018,0-4.547-1.714-4.547-4.944c0-3.265,1.667-4.908,4.287-4.908
		c2.781,0,3.89,1.697,3.89,4.445v1.124h-5.774C88.085,111.104,88.702,111.73,90.348,111.73z M91.638,107.697v-0.322
		c0-1.731-0.516-2.337-1.688-2.337c-1.21,0-1.804,0.588-1.885,2.659H91.638z"/>
	<path id="XMLID_125_" class="st0" d="M101.342,101.52h4.325c2.621,0,4.446,0.821,4.446,3.089c0,1.731-1.37,2.267-2.5,2.552
		c1.21,0.213,2.838,0.857,2.838,2.784c0,2.25-1.764,3.195-4.584,3.195h-4.524V101.52z M105.706,106.501
		c1.292,0,1.885-0.394,1.885-1.518v-0.267c0-1.089-0.636-1.464-2.104-1.464h-1.627v3.249H105.706z M105.706,111.426
		c1.489,0,2.104-0.428,2.104-1.587v-0.322c0-1.178-0.577-1.571-2.045-1.571h-1.904v3.48H105.706z"/>
	<path id="XMLID_122_" class="st0" d="M117.851,106.608c0-0.768-0.338-1.304-1.487-1.304c-0.914,0-1.946,0.25-3.175,0.626
		l-0.319-1.571c0.873-0.375,2.162-0.821,3.71-0.821c2.58,0,3.572,1.054,3.572,3.802v4.124c0,0.446,0.199,0.553,0.597,0.553h0.474
		l0.042,0.928c-0.22,0.179-0.656,0.412-1.37,0.412c-0.379,0-0.755-0.055-1.074-0.143l-0.854-1.054l-0.793,0.893
		c-0.396,0.16-0.992,0.338-1.825,0.338c-1.529,0-2.917-0.713-2.917-2.694c0-1.98,1.089-2.659,3.889-3.017l1.529-0.177V106.608z
		 M117.851,108.696l-1.37,0.178c-1.33,0.162-1.846,0.517-1.846,1.588v0.143c0,0.965,0.577,1.375,1.569,1.375
		c0.831,0,1.309-0.286,1.646-0.608V108.696z"/>
	<path id="XMLID_120_" class="st0" d="M126.819,103.823c0.436-0.177,0.874-0.286,1.43-0.286c0.634,0,1.051,0.161,1.269,0.304
		l-0.396,1.874c-0.357-0.142-0.774-0.231-1.468-0.231c-0.713,0-1.311,0.214-1.885,0.481v7.176h-2.322v-9.406h1.527l0.757,1.356
		L126.819,103.823z"/>
	<path id="XMLID_118_" class="st0" d="M134.957,103.823c0.436-0.177,0.872-0.286,1.428-0.286c0.635,0,1.053,0.161,1.269,0.304
		l-0.394,1.874c-0.359-0.142-0.776-0.231-1.468-0.231c-0.717,0-1.313,0.214-1.885,0.481v7.176h-2.324v-9.406h1.527l0.755,1.356
		L134.957,103.823z"/>
	<path id="XMLID_115_" class="st0" d="M139.581,101.217c0-0.732,0.634-1.196,1.388-1.196c0.734,0,1.37,0.464,1.37,1.196
		c0,0.748-0.635,1.196-1.37,1.196C140.215,102.413,139.581,101.966,139.581,101.217z M139.797,103.734h2.322v9.406h-2.322V103.734z"
		/>
	<path id="XMLID_112_" class="st0" d="M149.422,111.73c1.013,0,1.906-0.286,2.779-0.59l0.317,1.535
		c-0.615,0.303-1.844,0.713-3.251,0.713c-3.02,0-4.547-1.714-4.547-4.944c0-3.265,1.667-4.908,4.287-4.908
		c2.779,0,3.89,1.697,3.89,4.445v1.124h-5.778C147.161,111.104,147.775,111.73,149.422,111.73z M150.713,107.697v-0.322
		c0-1.731-0.518-2.337-1.688-2.337c-1.212,0-1.808,0.588-1.887,2.659H150.713z"/>
	<path id="XMLID_110_" class="st0" d="M158.807,103.823c0.438-0.177,0.872-0.286,1.43-0.286c0.635,0,1.051,0.161,1.271,0.304
		l-0.396,1.874c-0.359-0.142-0.776-0.231-1.47-0.231c-0.713,0-1.309,0.214-1.887,0.481v7.176h-2.32v-9.406h1.529l0.753,1.356
		L158.807,103.823z"/>
	<path id="XMLID_108_" class="st0" d="M167.559,103.342v-1.822h9.051v1.822h-3.255v9.798h-2.542v-9.798H167.559z"/>
	<path id="XMLID_105_" class="st0" d="M181.788,111.73c1.013,0,1.904-0.286,2.781-0.59l0.315,1.535
		c-0.615,0.303-1.844,0.713-3.251,0.713c-3.02,0-4.545-1.714-4.545-4.944c0-3.265,1.664-4.908,4.285-4.908
		c2.779,0,3.89,1.697,3.89,4.445v1.124h-5.778C179.527,111.104,180.142,111.73,181.788,111.73z M183.078,107.697v-0.322
		c0-1.731-0.516-2.337-1.684-2.337c-1.212,0-1.809,0.588-1.885,2.659H183.078z"/>
	<path id="XMLID_103_" class="st0" d="M187.185,108.445c0-3.229,1.489-4.908,4.289-4.908c1.267,0,2.32,0.304,2.936,0.589
		l-0.359,1.572c-0.814-0.232-1.587-0.429-2.422-0.429c-1.349,0-2.045,0.5-2.045,2.963v0.339c0,2.482,0.696,3.16,2.045,3.16
		c0.975,0,1.768-0.286,2.561-0.59l0.3,1.553c-0.637,0.32-1.669,0.695-3.016,0.695C188.674,113.389,187.185,111.641,187.185,108.445z
		"/>
	<path id="XMLID_101_" class="st0" d="M199.091,113.14h-2.32v-12.815h2.32v4.605l1.013-1.035c0.436-0.197,1.051-0.359,1.766-0.359
		c1.827,0,2.838,1,2.838,3.034v6.569h-2.32v-6.782c0-0.821-0.497-1.142-1.331-1.142c-0.753,0-1.29,0.213-1.965,0.535V113.14z"/>
	<path id="XMLID_99_" class="st0" d="M211.098,103.896c0.438-0.197,1.053-0.359,1.768-0.359c1.825,0,2.838,1,2.838,3.034v6.569
		h-2.326v-6.782c0-0.821-0.493-1.142-1.328-1.142c-0.755,0-1.29,0.213-1.965,0.535v7.389h-2.322v-9.406h1.529l0.753,1.232
		L211.098,103.896z"/>
	<path id="XMLID_96_" class="st0" d="M218.142,108.465c0-3.178,1.646-4.928,4.366-4.928c2.697,0,4.325,1.75,4.325,4.873
		c0,3.177-1.607,4.979-4.325,4.979C219.749,113.389,218.142,111.587,218.142,108.465z M224.432,108.642v-0.321
		c0-2.552-0.596-3.159-1.923-3.159c-1.37,0-1.965,0.607-1.965,3.07v0.339c0,2.517,0.656,3.23,1.965,3.23
		C223.776,111.801,224.432,111.087,224.432,108.642z"/>
	<path id="XMLID_94_" class="st0" d="M229.472,100.325h2.324v12.815h-2.324V100.325z"/>
	<path id="XMLID_91_" class="st0" d="M234.432,108.465c0-3.178,1.65-4.928,4.366-4.928c2.701,0,4.328,1.75,4.328,4.873
		c0,3.177-1.608,4.979-4.328,4.979C236.04,113.389,234.432,111.587,234.432,108.465z M240.724,108.642v-0.321
		c0-2.552-0.594-3.159-1.925-3.159c-1.37,0-1.963,0.607-1.963,3.07v0.339c0,2.517,0.654,3.23,1.963,3.23
		C240.069,111.801,240.724,111.087,240.724,108.642z"/>
	<path id="XMLID_87_" class="st0" d="M253.957,103.252v1.732h-2.341l1.37,0.749c0.099,0.231,0.159,0.482,0.159,0.875
		c0,2.337-1.847,3.123-3.968,3.123c-0.656,0-1.252-0.09-1.749-0.249c-0.216,0.159-0.417,0.392-0.417,0.73
		c0,0.518,0.36,0.786,1.191,0.786h2.324c2.141,0,3.276,0.732,3.276,2.41c0,2.196-2.223,2.981-4.785,2.981
		c-2.659,0-4.027-0.821-4.027-2.249c0-0.643,0.277-1,0.457-1.214l1.091-0.464c-0.755-0.216-1.29-0.696-1.29-1.553
		c0-0.553,0.199-0.946,0.396-1.196l1.212-0.643l-1.212-0.678c-0.277-0.464-0.476-0.999-0.476-1.732c0-2.337,2.005-3.123,4.01-3.123
		c0.91,0,1.646,0.161,2.24,0.464L253.957,103.252z M246.953,113.765c0,0.803,0.576,1.143,2.124,1.143
		c1.726,0,2.582-0.554,2.582-1.268v-0.159c0-0.483-0.258-0.858-1.271-0.858h-2.938C247.152,112.926,246.953,113.3,246.953,113.765z
		 M250.864,106.821v-0.303c0-1.071-0.537-1.48-1.686-1.48c-1.172,0-1.707,0.41-1.707,1.445v0.321c0,1.161,0.535,1.606,1.707,1.606
		C250.327,108.41,250.864,107.964,250.864,106.821z"/>
	<path id="XMLID_85_" class="st0" d="M258.58,112.801l-3.412-9.067h2.382l1.645,4.873l0.48,2.946l0.554-2.946l1.608-4.873h2.161
		l-4.346,12.299h-2.204L258.58,112.801z"/>
</g>
<path id="XMLID_80_" d="M32.572,70.775c4.74,1.663,7.293,6.142,7.293,11.196c0,8.511-5.228,11.07-12.339,11.07H0.664V48.253h25.707
	c7.902,0,13.312,2.751,13.312,11.964C39.683,65.401,37.372,69.239,32.572,70.775z M19.566,57.659c-2.919,0-5.836,0.128-8.752,0.128
	v7.87h12.339c2.673,0,6.381-0.448,6.381-4.031C29.533,56.956,22.483,57.659,19.566,57.659z M15.554,75.445l-4.74-8.316v16.442
	h12.703c2.917,0,5.956-0.32,5.956-4.222C29.472,74.037,18.835,75.445,15.554,75.445z"/>
<path id="XMLID_77_" d="M77.913,93.04h-10.15v-6.591l-4.376,6.591h-3.585c-7.356,0-12.885-1.792-12.885-10.749
	c0-8.638,4.313-10.749,11.606-10.749h9.239v-0.704c0-2.559-1.216-2.815-3.342-2.943c-5.228-0.32-10.514,0-15.741,0l4.131-8.638
	c3.04,0,6.017-0.064,9.057-0.064c16.409,0,16.106,4.35,16.106,20.027C77.973,83.828,77.913,88.432,77.913,93.04z M62.78,84.53
	l4.983-0.064v-5.053h-7.05c-1.764,0-3.464,0.383-3.464,2.621C57.249,84.851,61.016,84.53,62.78,84.53z"/>
<path id="XMLID_75_" d="M100.522,59.257h9.055l-4.679,8.701c-1.216,0-2.43-0.063-3.647-0.063c-4.556,0-4.801,2.366-4.801,6.717
	V93.04H86.3V59.257h10.15v6.655L100.522,59.257z"/>
<path id="XMLID_73_" d="M130.973,59.257h9.057l-4.679,8.701c-1.216,0-2.432-0.063-3.648-0.063c-4.558,0-4.801,2.366-4.801,6.717
	V93.04h-10.148V59.257h10.148v6.655L130.973,59.257z"/>
<path id="XMLID_70_" d="M156.683,56.187h-10.148v-8.83h10.148V56.187z M156.683,93.04h-10.148V59.257h10.148V93.04z"/>
<g id="XMLID_57_">
	<g id="XMLID_67_">
		<path id="XMLID_68_" class="st0" d="M228.924,92.827h7.379v-17.59c0-4.674,0.372-7.511,5.518-7.511
			c0.643,0,1.015,0.017,1.383,0.034c0.294,0.013,0.586,0.027,1.024,0.031l3.648-6.905h-7.202l-4.37,7.125v-7.165h-7.379V92.827z"/>
	</g>
	<g id="XMLID_64_">
		<path id="XMLID_65_" class="st0" d="M199.666,92.827h7.779L192.41,49.389h-12.602l-15.269,43.438h8.088l5.764-15.946l8.014-23.448
			l8.16,24.133h-12.102l3.792,6.803h10.374L199.666,92.827z"/>
	</g>
	<g id="XMLID_61_">
		<path id="XMLID_62_" class="st0" d="M214.057,92.827h7.379V60.846h-7.379V92.827z"/>
	</g>
	<g id="XMLID_58_">
		<path id="XMLID_59_" class="st0" d="M214.057,54.461h7.379v-6.005h-7.379V54.461z"/>
	</g>
</g>
<path id="XMLID_54_" class="st0" d="M293.934,64.852c-2.219,4.522-5.102,10.225-8.528,14.144c-1.825,2.093-4.913,4.378-7.428,5.564
	c-2.43,1.148-5.387,2.527-8.85,2.667c-0.266,0.002-0.529,0.012-0.793,0.012c-1.855,0-3.473-0.05-4.951-0.151
	c-3.957-0.316-6.256-3.127-7.532-5.884c-0.491-1.189-0.613-2.164-0.613-2.164h21.843c0.015-0.541,0.009-1.124,0.008-1.429
	l-0.004-0.436c0-11.791-4.23-16.597-14.605-16.597c-9.294,0-14.414,5.703-14.414,16.058c0,7.871,2.695,12.8,6.863,14.934
	c2.295,1.355,4.619,2.002,8.359,2.002c0.463,0,1.301,0.024,1.753,0.015c5.539,0.055,9.122-0.402,13.862-2.52
	c3.443-1.537,6.718-3.389,9.27-6.186c2.47-2.71,4.031-4.837,6.003-8.202c0.419-0.718,4.533-8.33,4.533-8.33
	C296.867,67.185,294.611,65.273,293.934,64.852z M255.388,72.941c0.472-4.549,3.198-7.158,7.473-7.158
	c5.404,0,6.495,3.826,6.836,7.158l0.182,1.761h-14.672L255.388,72.941z"/>
<g id="XMLID_35_">
	<g id="XMLID_36_">
		<path id="XMLID_37_" class="st0" d="M304.526,56.641c0.395,0.766,0.635,1.128,0.975,1.628c0.266,0.394,0.58,0.864,1.051,1.647
			c0.163,0.271,0.349,0.494,0.531,0.715c0.102,0.124,0.209,0.254,0.315,0.394c0.634-0.462,1.259-0.933,1.889-1.406
			c3.118-2.34,6.345-4.76,10.108-6.191c2.669-1.011,5.522-1.36,8.439-1.022c0.77,0.089,1.586,0.227,2.477,0.417
			c0.417-0.751,0.838-1.414,1.282-2.017c0.696-0.953,1.491-1.845,2.375-2.661c-1.138-0.349-2.318-0.636-3.528-0.857
			c-3.847-0.704-7.496-0.588-10.789,0.342c-2.986,0.842-6.017,2.348-9.535,4.74c-0.685,0.463-1.358,0.939-2.028,1.422l-0.975,0.704
			C306.969,54.608,305.349,55.958,304.526,56.641z"/>
	</g>
</g>
<g id="XMLID_30_">
	<path id="XMLID_33_" d="M380.885,127.979v1.186h-2.003v5.516h-1.411v-5.516h-2.014v-1.186H380.885z"/>
	<path id="XMLID_31_" d="M386.149,127.979h2.014v6.702h-1.303v-4.533c0-0.13,0.002-0.313,0.006-0.548
		c0.002-0.234,0.004-0.416,0.004-0.543l-1.271,5.625h-1.362l-1.259-5.625c0,0.127,0.002,0.309,0.004,0.543
		c0.004,0.235,0.006,0.418,0.006,0.548v4.533h-1.307v-6.702h2.039l1.22,5.27L386.149,127.979z"/>
</g>
</svg>
