<?xml version="1.0" encoding="utf-8"?>
<!-- Generator: Adobe Illustrator 25.3.0, SVG Export Plug-In . SVG Version: 6.00 Build 0)  -->
<svg version="1.1" id="Layer_1" xmlns="http://www.w3.org/2000/svg" xmlns:xlink="http://www.w3.org/1999/xlink" x="0px" y="0px"
	 viewBox="0 0 399.402 144.609" style="enable-background:new 0 0 399.402 144.609;" xml:space="preserve">
<style type="text/css">
	.st0{fill:#F37928;}
	.st1{fill:#FFFFFF;}
	.st2{fill-rule:evenodd;clip-rule:evenodd;}
	.st3{fill-rule:evenodd;clip-rule:evenodd;fill:none;stroke:#000000;stroke-width:0.2942;stroke-miterlimit:10;}
	.st4{fill-rule:evenodd;clip-rule:evenodd;fill:url(#SVGID_1_);}
	.st5{fill-rule:evenodd;clip-rule:evenodd;fill:url(#SVGID_2_);}
	.st6{fill-rule:evenodd;clip-rule:evenodd;fill:url(#SVGID_3_);}
	.st7{fill-rule:evenodd;clip-rule:evenodd;fill:url(#SVGID_4_);}
	.st8{fill-rule:evenodd;clip-rule:evenodd;fill:url(#SVGID_5_);}
	.st9{fill-rule:evenodd;clip-rule:evenodd;fill:url(#SVGID_6_);}
	.st10{fill-rule:evenodd;clip-rule:evenodd;fill:url(#SVGID_7_);}
	.st11{fill-rule:evenodd;clip-rule:evenodd;fill:url(#SVGID_8_);}
	.st12{fill-rule:evenodd;clip-rule:evenodd;fill:url(#SVGID_9_);}
	.st13{fill-rule:evenodd;clip-rule:evenodd;fill:url(#SVGID_10_);}
	.st14{fill-rule:evenodd;clip-rule:evenodd;fill:url(#SVGID_11_);}
	.st15{fill-rule:evenodd;clip-rule:evenodd;fill:url(#SVGID_12_);}
	.st16{fill-rule:evenodd;clip-rule:evenodd;fill:url(#SVGID_13_);}
	.st17{fill-rule:evenodd;clip-rule:evenodd;fill:url(#SVGID_14_);}
	.st18{fill-rule:evenodd;clip-rule:evenodd;fill:url(#SVGID_15_);}
	.st19{fill-rule:evenodd;clip-rule:evenodd;fill:url(#SVGID_16_);}
	.st20{fill-rule:evenodd;clip-rule:evenodd;fill:url(#SVGID_17_);}
	.st21{fill-rule:evenodd;clip-rule:evenodd;fill:url(#SVGID_18_);}
	.st22{fill-rule:evenodd;clip-rule:evenodd;fill:url(#SVGID_19_);}
	.st23{fill-rule:evenodd;clip-rule:evenodd;fill:url(#SVGID_20_);}
	.st24{fill:url(#SVGID_21_);}
	.st25{opacity:0.45;fill-rule:evenodd;clip-rule:evenodd;fill:#001523;}
	.st26{fill-rule:evenodd;clip-rule:evenodd;fill:url(#SVGID_22_);}
	.st27{fill-rule:evenodd;clip-rule:evenodd;fill:url(#SVGID_23_);}
	.st28{filter:url(#Adobe_OpacityMaskFilter);}
	.st29{filter:url(#Adobe_OpacityMaskFilter_1_);}
	.st30{mask:url(#SVGID_24_);fill-rule:evenodd;clip-rule:evenodd;fill:url(#SVGID_25_);}
	.st31{fill-rule:evenodd;clip-rule:evenodd;fill:url(#SVGID_26_);}
	.st32{fill-rule:evenodd;clip-rule:evenodd;fill:url(#SVGID_27_);}
	.st33{filter:url(#Adobe_OpacityMaskFilter_2_);}
	.st34{filter:url(#Adobe_OpacityMaskFilter_3_);}
	.st35{mask:url(#SVGID_28_);fill-rule:evenodd;clip-rule:evenodd;fill:url(#SVGID_29_);}
	.st36{opacity:0.56;fill-rule:evenodd;clip-rule:evenodd;fill:url(#SVGID_30_);}
	.st37{filter:url(#Adobe_OpacityMaskFilter_4_);}
	.st38{filter:url(#Adobe_OpacityMaskFilter_5_);}
	.st39{mask:url(#SVGID_31_);fill-rule:evenodd;clip-rule:evenodd;fill:url(#SVGID_32_);}
	.st40{opacity:0.35;fill-rule:evenodd;clip-rule:evenodd;fill:url(#SVGID_33_);}
	.st41{fill-rule:evenodd;clip-rule:evenodd;fill:url(#SVGID_34_);}
	.st42{fill-rule:evenodd;clip-rule:evenodd;fill:url(#SVGID_35_);}
	.st43{fill-rule:evenodd;clip-rule:evenodd;fill:url(#SVGID_36_);}
	.st44{fill-rule:evenodd;clip-rule:evenodd;fill:url(#SVGID_37_);}
	.st45{fill-rule:evenodd;clip-rule:evenodd;fill:url(#SVGID_38_);}
</style>
<path class="st0" d="M399.329,19.41c-0.572-6.782-4.423-12.239-11.135-15.782c-4.559-2.406-9.637-3.627-15.095-3.627
	c-13.181,0-24.607,6.999-27.108,8.643h-0.146c-10.195,0-17.883,2.13-20.074,2.809c-4.971-1.71-9.933-1.9-11.887-1.9
	c-0.146,0-0.276,0.002-0.391,0.002c-1.577-0.946-6.551-3.612-12.593-3.612c-4.205,0-8.052,1.283-11.437,3.813
	c-2.595,1.939-4.133,4.985-4.574,9.052c-0.893,8.241,3.054,20.341,9.709,31.153H19.181c-10.576,0-19.18,8.606-19.18,19.182v56.287
	c0,10.576,8.604,19.181,19.18,19.181h306.8c10.576,0,19.181-8.605,19.181-19.181V82.983c7.013-7.355,15.49-13.63,22.648-18.917
	c1.95-1.44,3.787-2.797,5.447-4.071C390.604,46.7,400.352,31.527,399.329,19.41z"/>
<path class="st0" d="M19.181,111.961c-6.412,0-11.629-5.217-11.629-11.629v-31.19c0-6.413,5.217-11.63,11.629-11.63h306.8
	c6.412,0,11.629,5.217,11.629,11.63v31.19c0,6.412-5.217,11.629-11.629,11.629H19.181z"/>
<path d="M325.98,51.773h-306.8c-9.577,0-17.368,7.792-17.368,17.369v56.287c0,9.577,7.791,17.368,17.368,17.368h306.8
	c9.576,0,17.367-7.791,17.367-17.368V69.142C343.348,59.565,335.557,51.773,325.98,51.773z"/>
<path class="st1" d="M19.181,59.325c-5.413,0-9.816,4.403-9.816,9.817v31.19c0,5.413,4.403,9.816,9.816,9.816h306.8
	c5.412,0,9.816-4.403,9.816-9.816v-31.19c0-5.414-4.404-9.817-9.816-9.817H19.181z"/>
<g>
	<path d="M83.997,103.227c-3.739,0-6.269-0.659-7.73-2.014c-1.485-1.374-2.207-3.829-2.207-7.505V74.747
		c0-3.675,0.722-6.131,2.207-7.507c1.463-1.354,3.992-2.011,7.73-2.011h26.49c3.736,0,6.264,0.656,7.729,2.011
		c1.486,1.379,2.208,3.833,2.208,7.507v18.961c0,3.676-0.722,6.129-2.207,7.505c-1.462,1.354-3.993,2.014-7.73,2.014H83.997z
		 M110.029,73.67H84.454v20.764h25.575V73.67z"/>
	<path d="M136.03,103.227V65.229h31.826c7.523,0,9.101,4.341,9.101,7.984v4.39c0,2.132-0.699,4.658-3.558,6.084
		c2.523,1.286,3.837,3.616,3.837,6.883v4.602c0,3.675-2.014,8.056-11.609,8.056H136.03z M164.371,94.714
		c1.583,0,2.19-0.219,2.416-0.349c0.398-0.251,0.612-0.876,0.612-1.844v-2.719c0-0.966-0.214-1.591-0.639-1.856
		c-0.155-0.091-0.751-0.334-2.389-0.334h-18.086v7.102H164.371z M164.371,79.658c2.819,0,2.819-1.099,2.819-1.566v-3.416
		c0-0.468,0-1.563-2.819-1.563h-18.086v6.546H164.371z"/>
	<path d="M222.663,103.227l-14.496-13.594h-6.533v13.594h-10.255V65.229h31.826c7.523,0,9.102,4.341,9.102,7.984v8.434
		c0,3.643-1.578,7.986-9.102,7.986h-1.899l16.591,13.594H222.663z M219.442,81.47c1.525,0,2.068-0.207,2.23-0.295
		c0.334-0.204,0.52-0.737,0.52-1.568v-4.351c0-0.834-0.186-1.367-0.557-1.591c-0.124-0.066-0.667-0.275-2.192-0.275h-17.808v8.08
		H219.442z"/>
	<path d="M280.464,103.227l-4.323-7.876h-21.586l-4.183,7.876h-10.713l21.502-37.998h9.265l21.8,37.998H280.464z M271.57,86.838
		l-6.068-11.484l-6.288,11.484H271.57z"/>
	<path d="M28.16,103.227c-3.738,0-6.266-0.659-7.729-2.014c-1.486-1.374-2.208-3.829-2.208-7.505V74.747
		c0-3.675,0.723-6.131,2.208-7.507c1.465-1.354,3.993-2.011,7.729-2.011h21.471c3.737,0,6.267,0.656,7.73,2.011
		c1.487,1.379,2.208,3.833,2.208,7.507v4.281l-10.393,1.645V73.67H28.618v20.764h20.558v-7.972l10.393,2.171v5.075
		c0,3.676-0.723,6.131-2.208,7.505c-1.462,1.354-3.991,2.014-7.73,2.014H28.16z"/>
</g>
<path class="st2" d="M312.995,11.382c0,0,6.475-0.332,12.748,1.985c0,0,8.733-3.027,20.798-2.908c0,0,21.797-15.265,40.809-5.228
	c18.154,9.582,11.615,32.777-15.195,53.327c-18.362,14.076-58.879,38.207-37.353,74.615c1.036,1.752-1.085,5.552-1.085,5.552
	l-36.21,0.441c0,0-13.751-13.967,4.49-45.155c2.942-4.412,14.648-19.78,1.14-35.399c-13.418-15.512-22.013-40.36-12.586-47.405
	C301.074,3.341,312.995,11.382,312.995,11.382z"/>
<path class="st3" d="M320.525,26.129"/>
<path d="M294.642,119.315c0,0,6.502-1.637,17.094,3.463c0,0-10.915-2.188-17.977,0.951L294.642,119.315z"/>
<path d="M296.926,135.528c0,0,9.414,1.178,16.868,0.784c0,0-8.043,1.765-15.888,1.765L296.926,135.528z"/>
<path class="st1" d="M347.943,44.67"/>
<path class="st2" d="M305.18,51.522"/>
<linearGradient id="SVGID_1_" gradientUnits="userSpaceOnUse" x1="319.637" y1="50.4531" x2="315.0871" y2="35.3816">
	<stop  offset="0" style="stop-color:#FFFACF"/>
	<stop  offset="1" style="stop-color:#BBB6C7"/>
</linearGradient>
<path class="st4" d="M322.611,37.14c-8.429,2.34-13.625-0.635-13.625-0.635s-0.167,4.944,3.638,9.501c0,0-1.759-3.284-1.751-7.239
	c2.046,1.134,7.212,1.062,9.14,0.72c0.25,1.342,0.939,4.662,2.57,6.816C322.583,46.304,321.113,41.326,322.611,37.14z"/>
<linearGradient id="SVGID_2_" gradientUnits="userSpaceOnUse" x1="320.7179" y1="71.6128" x2="318.0721" y2="59.7055">
	<stop  offset="0" style="stop-color:#FFFACF"/>
	<stop  offset="1" style="stop-color:#BBB6C7"/>
</linearGradient>
<path class="st5" d="M326.259,67.283c-8.141,2.218-12.992,0.062-12.992,0.062l-0.047-0.813c0.023-0.007,0.05-0.012,0.073-0.02
	c-0.155-0.691-0.69-3.7-0.358-6.121c0,0,0.342,2.654,1.896,5.818c1.559,1.519,6.744,1.191,9.23,0.351
	c-0.185-0.937-1.024-4.247-0.735-6.363L326.259,67.283z"/>
<linearGradient id="SVGID_3_" gradientUnits="userSpaceOnUse" x1="347.6401" y1="35.386" x2="343.1295" y2="37.1681">
	<stop  offset="0" style="stop-color:#FCDA00"/>
	<stop  offset="1" style="stop-color:#E71E25"/>
</linearGradient>
<path class="st6" d="M324.133,51.053c0,0,5.13-4.563,1.73-13.442l1.822-0.401C327.685,37.21,330.06,45.82,324.133,51.053z"/>
<linearGradient id="SVGID_4_" gradientUnits="userSpaceOnUse" x1="301.33" y1="61.7644" x2="319.9981" y2="54.9469">
	<stop  offset="0" style="stop-color:#FCDA00"/>
	<stop  offset="1" style="stop-color:#E71E25"/>
</linearGradient>
<path class="st7" d="M323.589,54.521c-9.838-1.229-14.805-0.689-18.643,4.942c-0.126,0.187-0.25,0.365-0.371,0.537
	c0.554,0.855,0.986,1.791,1.457,2.763c1.971-2.5,3.103-5.376,8.406-6.631c4.94-1.169,15.472,2.491,18.313-4.726
	C332.752,51.407,329.791,55.297,323.589,54.521z"/>
<linearGradient id="SVGID_5_" gradientUnits="userSpaceOnUse" x1="279.7749" y1="73.6332" x2="304.9464" y2="59.7889">
	<stop  offset="0" style="stop-color:#F08921"/>
	<stop  offset="0.6442" style="stop-color:#E71E25"/>
	<stop  offset="1" style="stop-color:#210000"/>
</linearGradient>
<path class="st8" d="M297.763,63.974c0,0-2.874-4.262-8.327-2.583c-6.218,1.914-3.815,8.654-10.527,12.011
	c2.235,0.22,4.776-2.187,6.083-3.567c2-2.11,4.721-8.914,10.761-4.424c2.871,7.752-6.355,0.02-12.133,10.579
	c0,0,3.05-3.846,7.661-3.686c6.528,0.226,7.075-2.278,7.829-4.215c0.681-1.755,2.323-1.25,5.163-3.515
	c0.698-0.557,1.465-1.219,1.969-1.857c-0.471-0.972-1.112-1.858-1.666-2.714C301.021,65.025,299.86,64.604,297.763,63.974z"/>
<linearGradient id="SVGID_6_" gradientUnits="userSpaceOnUse" x1="316.5026" y1="61.6326" x2="325.4025" y2="141.1591">
	<stop  offset="0" style="stop-color:#F08921"/>
	<stop  offset="0.6442" style="stop-color:#E71E25"/>
	<stop  offset="1" style="stop-color:#210000"/>
</linearGradient>
<path class="st9" d="M313.129,83.461c-0.604,0.854-1.406,2.017-2.59,3.657c1.869-0.059,6.03,0.326,12.972,3.527
	c1.322-2.558,2.738-5.072,4.212-7.527C324.317,82.493,318.02,81.74,313.129,83.461z"/>
<linearGradient id="SVGID_7_" gradientUnits="userSpaceOnUse" x1="307.088" y1="62.6807" x2="315.9895" y2="142.221">
	<stop  offset="0" style="stop-color:#F08921"/>
	<stop  offset="0.6442" style="stop-color:#E71E25"/>
	<stop  offset="1" style="stop-color:#210000"/>
</linearGradient>
<path class="st10" d="M307.883,90.755c-1.189,1.66-2.594,3.721-4.024,6.115c1.98-0.059,6.966,0.297,14.938,4.135
	c0,0-10.099-2.692-17.156-0.143c-0.983,1.913-1.923,3.968-2.757,6.146c2.39-0.19,8.122-0.044,16.884,3.81
	c1.571-6.74,4.305-13.491,7.64-19.971C320.719,90.261,313.489,88.982,307.883,90.755z"/>
<linearGradient id="SVGID_8_" gradientUnits="userSpaceOnUse" x1="299.608" y1="63.5182" x2="308.5091" y2="143.0548">
	<stop  offset="0" style="stop-color:#F08921"/>
	<stop  offset="0.6442" style="stop-color:#E71E25"/>
	<stop  offset="1" style="stop-color:#210000"/>
</linearGradient>
<path class="st11" d="M315.7,111.112c-3.29-0.613-12.147-1.996-18.085-0.367c-2.503,8.38-3.04,18.171,1.742,28.19l18.596,0.139
	C313.709,130.334,313.505,120.74,315.7,111.112z"/>
<linearGradient id="SVGID_9_" gradientUnits="userSpaceOnUse" x1="323.3308" y1="60.8646" x2="332.2319" y2="140.4016">
	<stop  offset="0" style="stop-color:#F08921"/>
	<stop  offset="0.6442" style="stop-color:#E71E25"/>
	<stop  offset="1" style="stop-color:#210000"/>
</linearGradient>
<path class="st12" d="M328.478,77.534c-2.14,0.226-7.27,0.605-10.898,2.106c2.339,0.266,5.823,1.027,10.423,3.014
	c1.547-2.559,3.156-5.049,4.786-7.454C331.296,76.447,329.85,77.259,328.478,77.534z"/>
<linearGradient id="SVGID_10_" gradientUnits="userSpaceOnUse" x1="340.3667" y1="32.4773" x2="340.4292" y2="32.6128">
	<stop  offset="0" style="stop-color:#FCDA00"/>
	<stop  offset="0.6442" style="stop-color:#E71E25"/>
	<stop  offset="1" style="stop-color:#210000"/>
</linearGradient>
<path class="st13" d="M341.159,32.283c-0.522,0.14-1.026,0.329-1.498,0.578C340.201,32.652,340.705,32.454,341.159,32.283z"/>
<linearGradient id="SVGID_11_" gradientUnits="userSpaceOnUse" x1="299.0888" y1="-44.4891" x2="371.4453" y2="112.2837">
	<stop  offset="0" style="stop-color:#FCDA00"/>
	<stop  offset="0.6442" style="stop-color:#E71E25"/>
	<stop  offset="1" style="stop-color:#210000"/>
</linearGradient>
<path class="st14" d="M384.693,7.306c-13.562-7.605-31.425,1.75-45.426,12.133c2.652-3.846,4.083-5.655,3.895-5.66
	c-17.104-0.399-23.77,6.026-23.77,6.026l2.964-3.84c0,0-5.306-2.708-10.635-1.929c-3.446-2.097-8.924-4.41-14.608-2.657
	c-11.768,3.628-8.719,21.494,7.268,44.053c0,0-22.178-36.734-6.974-41.699c4.388-1.432,7.843,0.203,10.009,1.879
	c-0.99,0.638-1.924,1.476-2.756,2.581c0,0-1.322,0.883,0.442,4.56c0,0-5.59,2.795,0,12.357c0,0,0.698-3.586,5.737-1.913
	c1.6,0.531,2.89-0.904,3.636-2.141c0.621-1.03,0.344-1.918,1.037-0.283c0.827,1.952,4.509,4.931,12.112,4.771
	c5.133-0.108,9.181-1.58,12.035-2.685c0.472-0.249,0.976-0.438,1.498-0.578c1.739-0.655,2.833-0.944,3.224-0.195
	c0.011,0.021,0.019,0.045,0.029,0.068c0.652,0.124,1.304,0.34,1.935,0.656c1.84,1.84,2.33,5.024,2.463,8.08
	c0.811,0.497,2.314,1.223,4.696,1.662c5.172-2.652,5.295-8.178,5.295-8.178c0.633,3.576-0.346,7.26-0.853,8.827
	c2.079-0.081,4.403-0.554,6.906-1.705c-9.25,7.352-13.772,2.989-13.85,3.176c-5.642,13.632-12.293,25.574-18.216,30.527
	c-1.63,2.405-3.239,4.896-4.786,7.454c0.699,0.303,1.421,0.63,2.172,0.991c0,0-0.945-0.251-2.451-0.527
	c-1.474,2.455-2.89,4.97-4.212,7.527c0.321,0.147,0.641,0.295,0.974,0.455c0,0-0.402-0.105-1.078-0.253
	c-3.335,6.479-6.068,13.23-7.64,19.971c0.408,0.179,0.815,0.357,1.236,0.553c0,0-0.486-0.106-1.303-0.259
	c-2.195,9.628-1.991,19.222,2.253,27.962l12.217,0.092c0,0-23.212-13.873,1.25-51.922c0.025-0.041,0.053-0.078,0.077-0.118
	c3.007,1.267,4.952,2.797,4.952,2.797c-1.394-1.562-2.744-2.906-4.162-3.99c0.746-1.14,1.499-2.26,2.252-3.361
	c0.065-0.095,0.131-0.188,0.195-0.283c0.732-1.068,1.468-2.121,2.204-3.155c0.935-1.312,1.872-2.605,2.806-3.853
	c3.371,1.906,5.456,4.206,5.456,4.206c-1.402-2.228-2.793-4.109-4.404-5.583c2.252-2.958,4.473-5.732,6.606-8.286
	c3.797,1.967,6.184,4.599,6.184,4.599c-1.559-2.475-3.105-4.519-4.957-6.053c1.483-1.748,2.927-3.407,4.287-4.926
	c0.512-0.57,1.203-1.416,1.993-2.415c4.471,1.98,7.357,5.157,7.357,5.157c-1.85-2.939-3.676-5.283-6.023-6.867
	c1.455-1.896,3.123-4.132,4.764-6.374c6.101,1.195,10.262,4.701,10.262,4.701c-4.079-4.269-6.104-5.986-8.6-6.985
	c1.176-1.626,2.864-3.836,2.698-3.622c6.696-0.473,15.098,2.076,16.371,2.478c-4.002,5.365-7.784,9.073-7.784,9.073
	S410.145,21.575,384.693,7.306z M367.161,40.274c0.008-0.005,0.017-0.01,0.025-0.015c0.219-0.365,0.41-0.714,0.614-1.07
	c0.216-0.318,1.351-2.495,1.761-3.364c8.568-1.127,14.815,0.441,14.815,0.441c-4.645-2.209-9.315-3.195-13.541-3.498
	c0.068-0.193-0.02-0.355-0.02-0.355s-1.398-3.783-9.885-2.589c0,0,4.963-3.059,10.998-1.601c0.124-1.051,0.158-2.049,0.062-2.967
	c8.232-0.756,16.195,1.428,16.195,1.428c-6.807-2.979-12.513-4.409-17.137-4.762c-0.617-1.245-0.629-1.787-1.765-2.706
	c-2.78-0.461-8.487-0.531-8.868,6.332c0,0-2.113-7.734,5.689-10.003c5.344-1.553,15.885,0.715,15.885,0.715
	c-12.676-4.635-20.019-3.292-25.263-1.65c-1.498-0.183-3.09-0.3-4.753-0.364c6.407-3.795,19.116-9.471,30.511-3.409
	c15.226,8.103,6.872,24.246-0.722,34.438C373.285,40.033,371.426,40.826,367.161,40.274z"/>
<linearGradient id="SVGID_12_" gradientUnits="userSpaceOnUse" x1="341.3423" y1="103.9358" x2="316.4003" y2="-10.2095">
	<stop  offset="0" style="stop-color:#FCDA00"/>
	<stop  offset="0.6442" style="stop-color:#E71E25"/>
	<stop  offset="1" style="stop-color:#210000"/>
</linearGradient>
<path class="st15" d="M344.412,32.155c3.835,7.563-5.041,34.292-18.113,37.034c0,0-9.885,2.46-14.003-0.187
	c0,0,0.224,3.688,1.046,4.358c1.193,0.976,5.736,2.662,12.449,0.984c7.983-1.995,18.967-18.078,22.271-33.987
	c0,0,0.239,0.222,0.748,0.533c-0.133-3.055-0.623-6.24-2.463-8.08C345.716,32.496,345.064,32.279,344.412,32.155z"/>
<linearGradient id="SVGID_13_" gradientUnits="userSpaceOnUse" x1="311.311" y1="15.6999" x2="348.6364" y2="72.5507">
	<stop  offset="0" style="stop-color:#FFF0BA"/>
	<stop  offset="0.1963" style="stop-color:#FCDA00"/>
	<stop  offset="0.6442" style="stop-color:#E71E25"/>
	<stop  offset="1" style="stop-color:#210000"/>
</linearGradient>
<path class="st16" d="M297.408,13.733c4.24-1.384,7.604,0.096,9.781,1.71c-1.985,1.153-1.101,3.166,3.206,4.028
	c2.898,0.58,4.881,4.163,5.168,4.307c13.209-7.752,24.122-4.884,24.185-5.031c2.333-3.354,3.589-4.961,3.414-4.966
	c-17.104-0.399-23.77,6.026-23.77,6.026l2.964-3.84c0,0-5.306-2.708-10.635-1.929c-3.446-2.097-8.924-4.41-14.608-2.657
	c-11.768,3.628-8.719,21.494,7.268,44.053C304.382,55.432,282.204,18.698,297.408,13.733z"/>
<linearGradient id="SVGID_14_" gradientUnits="userSpaceOnUse" x1="306.7693" y1="36.4255" x2="290.4037" y2="0.8218">
	<stop  offset="0" style="stop-color:#FCDA00"/>
	<stop  offset="0.6442" style="stop-color:#E71E25"/>
	<stop  offset="1" style="stop-color:#210000"/>
</linearGradient>
<path class="st17" d="M297.763,14.301c3.627-1.184,7.037-0.437,9.186,0.861c0.212-0.174,2.873-0.288,3.241-0.682
	c-3.438-1.837-8.282-3.447-13.287-1.904c-11.768,3.628-8.509,20.297,7.479,42.856C304.382,55.432,282.558,19.266,297.763,14.301z"/>
<linearGradient id="SVGID_15_" gradientUnits="userSpaceOnUse" x1="353.2137" y1="18.3777" x2="331.3971" y2="139.2032">
	<stop  offset="0" style="stop-color:#FCDA00"/>
	<stop  offset="0.6442" style="stop-color:#E71E25"/>
	<stop  offset="1" style="stop-color:#210000"/>
</linearGradient>
<path class="st18" d="M339.901,75.376c3.274,1.887,5.299,4.11,5.299,4.11c-1.352-2.148-2.698-3.966-4.238-5.414
	C340.604,74.502,340.254,74.939,339.901,75.376z"/>
<linearGradient id="SVGID_16_" gradientUnits="userSpaceOnUse" x1="365.9163" y1="20.6765" x2="344.1024" y2="141.487">
	<stop  offset="0" style="stop-color:#FCDA00"/>
	<stop  offset="0.6442" style="stop-color:#E71E25"/>
	<stop  offset="1" style="stop-color:#210000"/>
</linearGradient>
<path class="st19" d="M356.72,55.491c-0.392,0.544-0.788,1.085-1.19,1.621c4.113,1.985,6.737,4.867,6.737,4.867
	C360.549,59.251,358.834,57.063,356.72,55.491z"/>
<linearGradient id="SVGID_17_" gradientUnits="userSpaceOnUse" x1="359.6445" y1="19.5422" x2="337.8295" y2="140.3589">
	<stop  offset="0" style="stop-color:#FCDA00"/>
	<stop  offset="0.6442" style="stop-color:#E71E25"/>
	<stop  offset="1" style="stop-color:#210000"/>
</linearGradient>
<path class="st20" d="M349.28,64.771c-0.372,0.426-0.747,0.849-1.123,1.271c3.346,1.901,5.429,4.175,5.429,4.175
	C352.218,68.044,350.845,66.226,349.28,64.771z"/>
<g>
	<linearGradient id="SVGID_18_" gradientUnits="userSpaceOnUse" x1="391.0909" y1="41.8176" x2="330.2203" y2="-21.3502">
		<stop  offset="0" style="stop-color:#FCDA00"/>
		<stop  offset="0.6442" style="stop-color:#E71E25"/>
		<stop  offset="1" style="stop-color:#210000"/>
	</linearGradient>
	<path class="st21" d="M388.188,26.684c-6.807-2.979-12.513-4.409-17.137-4.762c-0.617-1.245-0.629-1.787-1.765-2.706
		c-1.699-0.282-4.486-0.408-6.488,1.094c1.699,2.132,2.791,4.846,3.333,7.727c1.688-0.275,3.674-0.328,5.799,0.186
		c0.124-1.051,0.158-2.049,0.062-2.967C380.225,24.5,388.188,26.684,388.188,26.684z"/>
	<linearGradient id="SVGID_19_" gradientUnits="userSpaceOnUse" x1="388.9014" y1="43.9284" x2="328.0305" y2="-19.2397">
		<stop  offset="0" style="stop-color:#FCDA00"/>
		<stop  offset="0.6442" style="stop-color:#E71E25"/>
		<stop  offset="1" style="stop-color:#210000"/>
	</linearGradient>
	<path class="st22" d="M384.693,7.306c-13.123-7.358-30.271,1.162-44.052,11.128c5.162-1.814,10.314-3.41,15.817-2.173
		c1.944,0.436,3.574,1.331,4.927,2.534c0.875-1.343,2.329-2.555,4.722-3.251c5.344-1.553,15.885,0.715,15.885,0.715
		c-12.676-4.635-20.019-3.292-25.263-1.65c-1.498-0.183-3.09-0.3-4.753-0.364c6.407-3.795,19.116-9.471,30.511-3.409
		c15.226,8.103,6.872,24.246-0.722,34.438c-8.48-5.241-10.34-4.448-14.604-5l0.025-0.015c0.219-0.365,0.41-0.714,0.614-1.07
		c0.216-0.318,1.351-2.495,1.761-3.364c8.568-1.127,14.815,0.441,14.815,0.441c-4.645-2.209-9.315-3.195-13.541-3.498
		c0.068-0.193-0.02-0.355-0.02-0.355s-0.755-1.996-4.428-2.628c0.441,3.935-0.057,7.985-1.328,11.081
		c-0.091,0.222-0.193,0.441-0.288,0.664c0.027-0.014,0.055-0.021,0.081-0.033c-0.034,0.027-0.064,0.047-0.098,0.074
		c-1.053,2.464-2.272,4.863-3.634,7.194c6.037,1.215,10.146,4.675,10.146,4.675c-4.079-4.269-6.104-5.986-8.6-6.985
		c1.176-1.626,2.864-3.836,2.698-3.622c6.696-0.473,15.098,2.076,16.371,2.478c-4.002,5.365-7.784,9.073-7.784,9.073
		S410.145,21.575,384.693,7.306z"/>
</g>
<g>
	<linearGradient id="SVGID_20_" gradientUnits="userSpaceOnUse" x1="385.1638" y1="41.9794" x2="350.3693" y2="-24.8714">
		<stop  offset="0" style="stop-color:#F9C70F"/>
		<stop  offset="0.6442" style="stop-color:#E71E25"/>
		<stop  offset="1" style="stop-color:#210000"/>
	</linearGradient>
	<path class="st23" d="M385.052,9.13c-10.97-6.151-22.463-1.868-34.742,5.744c3.976-1.657,7.753-3.159,10.592-4.782
		c6.391-2.19,14.236-2.564,21.566,1.336c15.226,8.103,6.892,23.654-0.702,33.847c-0.166-0.102-0.312-0.188-0.474-0.285
		c-0.038,0.05-0.074,0.101-0.114,0.151c0.24,0.071,0.44,0.133,0.561,0.171c-3.496,4.688-6.826,8.11-7.61,8.899
		c-0.01,0.014-0.02,0.026-0.029,0.04C376.518,52.01,409.575,22.878,385.052,9.13z"/>
</g>
<path class="st2" d="M349.694,18.428c0,0-4.207,1.019-10.591,4.199c-4.613,2.296-6.711,2.518-9.86,2.565
	c-0.165,0.003,2.182,1.421,6.743,0.694c0,0,1.916,2.452,7.337,1.197c4.991-1.157,2.961-5.498,2.895-5.271
	C347.255,20.201,349.694,18.428,349.694,18.428z"/>
<g>
	<radialGradient id="SVGID_21_" cx="343.6897" cy="24.5958" r="3.6503" gradientUnits="userSpaceOnUse">
		<stop  offset="0.0123" style="stop-color:#FFF7A6"/>
		<stop  offset="0.5399" style="stop-color:#8EC63E"/>
		<stop  offset="1" style="stop-color:#00893D"/>
	</radialGradient>
	<path class="st24" d="M344.282,22.656c-0.745,0.607-1.031,0.816-1.88,1.208c0.579,1.067-0.102,2.904-0.102,2.904
		c0.057-0.481-0.77-1.88-1.306-2.26c-1.134,0.445-2.243,0.736-3.136,0.919c0.716,0.774,2.766,2.761,5.976,1.509
		C346.664,25.831,345.24,23.393,344.282,22.656z"/>
</g>
<path class="st2" d="M317.034,30.514c0,0,1.768-2.352,3.827-1.024C320.861,29.491,320.856,32.285,317.034,30.514z"/>
<path class="st2" d="M313.199,30.705c0,0-0.893-2.414-2.694-1.528C310.505,29.177,309.982,31.72,313.199,30.705z"/>
<path class="st25" d="M337.508,25.327l7.207-3.548c0,0,1.646,3.476-6.878,4.061L337.508,25.327z"/>
<radialGradient id="SVGID_22_" cx="311.3171" cy="24.9457" r="3.9509" gradientUnits="userSpaceOnUse">
	<stop  offset="0.0123" style="stop-color:#FFF7A6"/>
	<stop  offset="0.5399" style="stop-color:#8EC63E"/>
	<stop  offset="1" style="stop-color:#00893D"/>
</radialGradient>
<path class="st26" d="M308.659,23.438c0,0-1.256,2.083-0.19,3.945c0,0,3.163,0.186,4.107-2.438
	C312.576,24.945,310.405,22.664,308.659,23.438z"/>
<path class="st2" d="M310.445,23.676c1.512,0.696,3.098,2.233,3.098,2.233s-0.903-3.67-4.414-4.301
	c-1.818-0.327-2.989-1.565-2.989-1.565c-0.53,1.274,0.572,2.516,0.572,2.516c-0.884,1.274-0.06,4.428,1.757,4.824
	c-0.988-2.182,0.19-3.945,0.19-3.945c0.234-0.101,0.508-0.113,0.798-0.073c-0.27,0.41-0.734,1.49,0.403,3.084
	C309.86,26.449,309.364,25.024,310.445,23.676z"/>
<linearGradient id="SVGID_23_" gradientUnits="userSpaceOnUse" x1="323.6215" y1="67.761" x2="337.7126" y2="120.196">
	<stop  offset="0" style="stop-color:#F9C70F"/>
	<stop  offset="0.6442" style="stop-color:#E71E25"/>
	<stop  offset="1" style="stop-color:#210000"/>
</linearGradient>
<path class="st27" d="M312.296,69.002c0,0,12.459,4.159,22.222-4.455c0,0-7.049,11.057-21.822,6.316L312.296,69.002z"/>
<defs>
	<filter id="Adobe_OpacityMaskFilter" filterUnits="userSpaceOnUse" x="306.471" y="80.342" width="23.162" height="58.861">
		<feFlood  style="flood-color:white;flood-opacity:1" result="back"/>
		<feBlend  in="SourceGraphic" in2="back" mode="normal"/>
	</filter>
</defs>
<mask maskUnits="userSpaceOnUse" x="306.471" y="80.342" width="23.162" height="58.861" id="SVGID_24_">
	<g class="st28">
		<defs>
			<filter id="Adobe_OpacityMaskFilter_1_" filterUnits="userSpaceOnUse" x="306.471" y="80.342" width="23.162" height="58.861">
				<feFlood  style="flood-color:white;flood-opacity:1" result="back"/>
				<feBlend  in="SourceGraphic" in2="back" mode="normal"/>
			</filter>
		</defs>
		<mask maskUnits="userSpaceOnUse" x="306.471" y="80.342" width="23.162" height="58.861" id="SVGID_24_">
			<g class="st29">
			</g>
		</mask>
		
			<linearGradient id="SVGID_25_" gradientUnits="userSpaceOnUse" x1="332.1443" y1="137.5972" x2="341.6447" y2="84.1255" gradientTransform="matrix(0.9975 -0.0707 0.0707 0.9975 -26.9798 28.0747)">
			<stop  offset="0.3804" style="stop-color:#000000"/>
			<stop  offset="1" style="stop-color:#808080"/>
		</linearGradient>
		<path class="st30" d="M307.237,139.203c0,0-7.179-29.862,22.395-58.861c0,0-23.545,29.286-12.346,57.712L307.237,139.203z"/>
	</g>
</mask>
<linearGradient id="SVGID_26_" gradientUnits="userSpaceOnUse" x1="332.1443" y1="137.5972" x2="341.6447" y2="84.1255" gradientTransform="matrix(0.9975 -0.0707 0.0707 0.9975 -26.9798 28.0747)">
	<stop  offset="0.3804" style="stop-color:#FFFACF"/>
	<stop  offset="1" style="stop-color:#FFF8B7"/>
</linearGradient>
<path class="st31" d="M307.237,139.203c0,0-7.179-29.862,22.395-58.861c0,0-23.545,29.286-12.346,57.712L307.237,139.203z"/>
<linearGradient id="SVGID_27_" gradientUnits="userSpaceOnUse" x1="323.9559" y1="18.1216" x2="395.6197" y2="50.7778">
	<stop  offset="0" style="stop-color:#FFF0BA"/>
	<stop  offset="0.1963" style="stop-color:#FCDA00"/>
	<stop  offset="0.6442" style="stop-color:#E71E25"/>
	<stop  offset="1" style="stop-color:#210000"/>
</linearGradient>
<path class="st32" d="M315.852,23.489c0,0,6.892,2.011,23.416-4.05l1.853-2.557C341.121,16.883,324.179,14.875,315.852,23.489z"/>
<defs>
	<filter id="Adobe_OpacityMaskFilter_2_" filterUnits="userSpaceOnUse" x="327.273" y="29.228" width="39.131" height="47.09">
		<feFlood  style="flood-color:white;flood-opacity:1" result="back"/>
		<feBlend  in="SourceGraphic" in2="back" mode="normal"/>
	</filter>
</defs>
<mask maskUnits="userSpaceOnUse" x="327.273" y="29.228" width="39.131" height="47.09" id="SVGID_28_">
	<g class="st33">
		<defs>
			<filter id="Adobe_OpacityMaskFilter_3_" filterUnits="userSpaceOnUse" x="327.273" y="29.228" width="39.131" height="47.09">
				<feFlood  style="flood-color:white;flood-opacity:1" result="back"/>
				<feBlend  in="SourceGraphic" in2="back" mode="normal"/>
			</filter>
		</defs>
		<mask maskUnits="userSpaceOnUse" x="327.273" y="29.228" width="39.131" height="47.09" id="SVGID_28_">
			<g class="st34">
			</g>
		</mask>
		<linearGradient id="SVGID_29_" gradientUnits="userSpaceOnUse" x1="363.1706" y1="8.8746" x2="332.8433" y2="95.6581">
			<stop  offset="0" style="stop-color:#FFFFFF"/>
			<stop  offset="1" style="stop-color:#B3B3B3"/>
		</linearGradient>
		<path class="st35" d="M346.286,32.104c0,0,7.18,11.768-15.5,40.482c-1.162,0.789-2.344,1.472-3.513,2.077
			c1.333,1.056,1.788,1.654,1.788,1.654c12.633-1.436,22.107-25.838,22.107-25.838C369.831,47.32,366.1,29.228,366.1,29.228
			C357.485,42.148,346.286,32.104,346.286,32.104z"/>
	</g>
</mask>
<linearGradient id="SVGID_30_" gradientUnits="userSpaceOnUse" x1="363.1706" y1="8.8746" x2="332.8433" y2="95.6581">
	<stop  offset="0" style="stop-color:#FFFFFF"/>
	<stop  offset="1" style="stop-color:#001523"/>
</linearGradient>
<path class="st36" d="M346.286,32.104c0,0,7.18,11.768-15.5,40.482c-1.162,0.789-2.344,1.472-3.513,2.077
	c1.333,1.056,1.788,1.654,1.788,1.654c12.633-1.436,22.107-25.838,22.107-25.838C369.831,47.32,366.1,29.228,366.1,29.228
	C357.485,42.148,346.286,32.104,346.286,32.104z"/>
<defs>
	<filter id="Adobe_OpacityMaskFilter_4_" filterUnits="userSpaceOnUse" x="300.634" y="24.921" width="44.523" height="27.277">
		<feFlood  style="flood-color:white;flood-opacity:1" result="back"/>
		<feBlend  in="SourceGraphic" in2="back" mode="normal"/>
	</filter>
</defs>
<mask maskUnits="userSpaceOnUse" x="300.634" y="24.921" width="44.523" height="27.277" id="SVGID_31_">
	<g class="st37">
		<defs>
			<filter id="Adobe_OpacityMaskFilter_5_" filterUnits="userSpaceOnUse" x="300.634" y="24.921" width="44.523" height="27.277">
				<feFlood  style="flood-color:white;flood-opacity:1" result="back"/>
				<feBlend  in="SourceGraphic" in2="back" mode="normal"/>
			</filter>
		</defs>
		<mask maskUnits="userSpaceOnUse" x="300.634" y="24.921" width="44.523" height="27.277" id="SVGID_31_">
			<g class="st38">
			</g>
		</mask>
		<linearGradient id="SVGID_32_" gradientUnits="userSpaceOnUse" x1="328.3406" y1="17.4316" x2="314.3076" y2="57.5881">
			<stop  offset="0" style="stop-color:#FFFFFF"/>
			<stop  offset="1" style="stop-color:#B3B3B3"/>
		</linearGradient>
		<path class="st39" d="M302.931,24.921c0,0-0.064,7.175,4.021,7.178c7.177,0.005,8.039-4.589,8.039-4.589s1.592,5.25,8.613,6.316
			c4.599,0.7,11.277,0.712,18.663-2.583c0,0,3.158,1.147,2.872,4.015c-0.285,2.859-6.891,3.446-6.891,3.446l-9.188,13.495h-6.317
			l1.148-16.08l-9.476-1.435l-11.198,2.871l-2.584-6.891L302.931,24.921z"/>
	</g>
</mask>
<linearGradient id="SVGID_33_" gradientUnits="userSpaceOnUse" x1="328.3406" y1="17.4316" x2="314.3076" y2="57.5881">
	<stop  offset="0" style="stop-color:#FFFFFF"/>
	<stop  offset="1" style="stop-color:#001523"/>
</linearGradient>
<path class="st40" d="M302.931,24.921c0,0-0.064,7.175,4.021,7.178c7.177,0.005,8.039-4.589,8.039-4.589s1.592,5.25,8.613,6.316
	c4.599,0.7,11.277,0.712,18.663-2.583c0,0,3.158,1.147,2.872,4.015c-0.285,2.859-6.891,3.446-6.891,3.446l-9.188,13.495h-6.317
	l1.148-16.08l-9.476-1.435l-11.198,2.871l-2.584-6.891L302.931,24.921z"/>
<linearGradient id="SVGID_34_" gradientUnits="userSpaceOnUse" x1="358.2432" y1="8.3159" x2="393.7834" y2="68.8426">
	<stop  offset="0" style="stop-color:#FFF0BA"/>
	<stop  offset="0.1963" style="stop-color:#FCDA00"/>
	<stop  offset="0.6442" style="stop-color:#E71E25"/>
	<stop  offset="1" style="stop-color:#210000"/>
</linearGradient>
<path class="st41" d="M339.749,18.746c0,0,21.183-19.375,41.569-13.059C381.318,5.688,365.237,0.232,339.749,18.746z"/>
<linearGradient id="SVGID_35_" gradientUnits="userSpaceOnUse" x1="340.843" y1="25.1385" x2="368.9586" y2="37.9504">
	<stop  offset="0" style="stop-color:#FFF0BA"/>
	<stop  offset="0.1963" style="stop-color:#FCDA00"/>
	<stop  offset="0.6442" style="stop-color:#E71E25"/>
	<stop  offset="1" style="stop-color:#210000"/>
</linearGradient>
<path class="st42" d="M337.674,27.222c0,0,7.179,1.435,9.188-2.871C346.861,24.351,348.01,32.102,337.674,27.222z"/>
<linearGradient id="SVGID_36_" gradientUnits="userSpaceOnUse" x1="307.7183" y1="25.6939" x2="327.5901" y2="34.7492">
	<stop  offset="0" style="stop-color:#FFF0BA"/>
	<stop  offset="0.1963" style="stop-color:#FCDA00"/>
	<stop  offset="0.6442" style="stop-color:#E71E25"/>
	<stop  offset="1" style="stop-color:#210000"/>
</linearGradient>
<path class="st43" d="M306.376,25.5c0,0,3.499,4.921,6.2-0.555c0,0-1.32,4.861-4.765,3.712
	C304.366,27.508,306.376,25.5,306.376,25.5z"/>
<g>
	<polygon points="19.401,134.938 19.401,119.622 34.851,119.622 34.851,125.286 30.66,125.286 30.66,130.496 25.744,130.496 
		25.744,134.938 	"/>
	<path class="st0" d="M21.213,133.124v-11.689h11.825v2.039h-9.107v3.081h4.916v2.129h-4.916v4.44H21.213z"/>
	<rect x="35.508" y="119.622" width="6.343" height="15.315"/>
	<path class="st0" d="M37.32,133.124v-11.689h2.719v11.689H37.32z"/>
	<path d="M56.176,134.938l-4.712-4.418H51.41v4.418h-6.297v-15.315h11.825c3.273,0,4.44,2.106,4.44,4.078v2.741
		c0,1.281-0.493,2.619-1.737,3.4l6.22,5.096H56.176z"/>
	<path class="st0" d="M46.924,133.124v-11.689h10.013c1.752,0,2.628,0.756,2.628,2.266v2.741c0,1.51-0.876,2.266-2.628,2.266h-1.541
		l5.392,4.417h-3.896l-4.712-4.417h-2.582v4.417H46.924z M55.714,123.429h-6.116v3.285h6.116c0.423,0,0.717-0.046,0.884-0.138
		c0.227-0.137,0.34-0.402,0.34-0.798v-1.415c0-0.395-0.113-0.661-0.34-0.798C56.431,123.474,56.137,123.429,55.714,123.429z"/>
	<polygon points="64.187,134.938 64.187,119.622 79.772,119.622 79.772,125.241 75.921,125.241 75.921,129.114 79.886,129.114 
		79.886,134.938 	"/>
	<path class="st0" d="M65.999,133.124v-11.689H77.96v1.994h-9.243v2.605h5.391v1.993h-5.391v2.9h9.356v2.197H65.999z"/>
	<polygon points="82.196,134.938 82.196,119.622 97.647,119.622 97.647,125.286 93.455,125.286 93.455,130.496 88.539,130.496 
		88.539,134.938 	"/>
	<path class="st0" d="M84.008,133.124v-11.689h11.826v2.039h-9.107v3.081h4.916v2.129h-4.916v4.44H84.008z"/>
	<rect x="98.302" y="119.622" width="6.345" height="15.315"/>
	<path class="st0" d="M100.115,133.124v-11.689h2.719v11.689H100.115z"/>
	<path d="M112.37,134.938c-1.605,0-2.755-0.344-3.519-1.049c-0.803-0.742-1.194-1.896-1.194-3.528v-6.161
		c0-1.633,0.391-2.786,1.194-3.529c0.763-0.705,1.913-1.048,3.519-1.048h8.065c1.555,0,2.687,0.329,3.459,1.004
		c0.843,0.738,1.254,1.869,1.254,3.46v6.274c0,1.632-0.391,2.786-1.193,3.528c-0.763,0.705-1.914,1.049-3.519,1.049H112.37z
		 M114.431,129.114v-3.782h-0.43v3.782H114.431z"/>
	<path class="st0" d="M120.683,123.52h-8.496v7.407h8.496v-2.605h-4.44v-1.994h7.09v4.033c0,1.088-0.203,1.82-0.611,2.197
		c-0.408,0.377-1.171,0.566-2.288,0.566h-8.065c-1.119,0-1.88-0.189-2.289-0.566c-0.408-0.377-0.611-1.109-0.611-2.197v-6.161
		c0-1.088,0.203-1.82,0.611-2.198c0.408-0.377,1.17-0.566,2.289-0.566h8.065c1.086,0,1.842,0.186,2.265,0.556
		c0.423,0.37,0.634,1.068,0.634,2.096v0.271l-2.651,0.476V123.52z"/>
	<polygon points="139.396,134.938 139.396,129.908 134.526,129.908 134.526,134.938 128.182,134.938 128.182,119.622 
		134.526,119.622 134.526,124.152 139.396,124.152 139.396,119.622 145.762,119.622 145.762,134.938 	"/>
	<path class="st0" d="M129.994,133.124v-11.689h2.719v4.53h8.495v-4.53h2.741v11.689h-2.741v-5.029h-8.495v5.029H129.994z"/>
	<polygon points="151.742,134.938 151.742,125.332 146.373,125.332 146.373,119.622 163.478,119.622 163.478,125.332 
		158.085,125.332 158.085,134.938 	"/>
	<path class="st0" d="M156.273,123.52v9.604h-2.717v-9.604h-5.37v-2.085h13.479v2.085H156.273z"/>
	<rect x="164.088" y="119.622" width="6.344" height="15.315"/>
	<path class="st0" d="M165.901,133.124v-11.689h2.719v11.689H165.901z"/>
	<polygon points="186.715,134.938 179.743,129.067 179.743,134.938 173.671,134.938 173.671,119.622 178,119.622 184.975,125.464 
		184.975,119.622 191.047,119.622 191.047,134.938 	"/>
	<path class="st0" d="M175.484,133.124v-11.689h1.857l8.224,6.887c0.589,0.499,1.035,0.922,1.337,1.27
		c-0.076-1.088-0.114-1.76-0.114-2.017v-6.14h2.447v11.689h-1.858l-8.587-7.226c-0.361-0.301-0.685-0.619-0.973-0.951
		c0.076,0.756,0.113,1.374,0.113,1.856v6.321H175.484z"/>
	<path d="M198.748,134.938c-1.607,0-2.758-0.345-3.52-1.052c-0.8-0.739-1.191-1.893-1.191-3.525v-6.161
		c0-1.633,0.391-2.786,1.193-3.529c0.759-0.704,1.911-1.048,3.518-1.048h8.065c1.556,0,2.688,0.329,3.46,1.004
		c0.843,0.738,1.253,1.869,1.253,3.46v6.274c0,1.631-0.391,2.785-1.194,3.528c-0.763,0.705-1.913,1.049-3.519,1.049H198.748z
		 M200.809,129.114v-3.782h-0.429v3.782H200.809z"/>
	<path class="st0" d="M207.061,123.52h-8.495v7.407h8.495v-2.605h-4.44v-1.994h7.091v4.033c0,1.088-0.204,1.82-0.612,2.197
		c-0.407,0.377-1.17,0.566-2.288,0.566h-8.065c-1.117,0-1.88-0.189-2.288-0.566c-0.408-0.377-0.611-1.109-0.611-2.197v-6.161
		c0-1.088,0.203-1.82,0.611-2.198c0.407-0.377,1.17-0.566,2.288-0.566h8.065c1.088,0,1.844,0.186,2.267,0.556
		c0.423,0.37,0.634,1.068,0.634,2.096v0.271l-2.651,0.476V123.52z"/>
	<polygon points="235.447,134.938 235.447,129.908 230.577,129.908 230.577,134.938 224.233,134.938 224.233,119.622 
		230.577,119.622 230.577,124.152 235.447,124.152 235.447,119.622 241.813,119.622 241.813,134.938 	"/>
	<path class="st0" d="M226.046,133.124v-11.689h2.719v4.53h8.495v-4.53h2.741v11.689h-2.741v-5.029h-8.495v5.029H226.046z"/>
	<path d="M249.538,134.938c-1.607,0-2.758-0.345-3.521-1.052c-0.801-0.74-1.191-1.895-1.191-3.525v-6.161
		c0-1.632,0.391-2.785,1.194-3.529c0.76-0.704,1.911-1.048,3.518-1.048h8.608c1.605,0,2.755,0.343,3.519,1.048
		c0.804,0.746,1.193,1.899,1.193,3.529v6.161c0,1.63-0.39,2.782-1.19,3.525c-0.767,0.708-1.917,1.052-3.522,1.052H249.538z
		 M256.514,129.114v-3.782h-5.344v3.782H256.514z"/>
	<path class="st0" d="M246.639,124.199c0-1.088,0.204-1.82,0.612-2.198c0.406-0.377,1.17-0.566,2.287-0.566h8.608
		c1.117,0,1.88,0.189,2.288,0.566c0.407,0.378,0.611,1.11,0.611,2.198v6.161c0,1.088-0.204,1.82-0.611,2.197
		c-0.408,0.377-1.171,0.566-2.288,0.566h-8.608c-1.117,0-1.881-0.189-2.287-0.566c-0.408-0.377-0.612-1.109-0.612-2.197V124.199z
		 M249.357,130.927h8.97v-7.407h-8.97V130.927z"/>
	<path d="M270.334,134.938c-1.606,0-2.759-0.345-3.52-1.052c-0.802-0.74-1.192-1.895-1.192-3.525v-6.161
		c0-1.632,0.391-2.785,1.195-3.529c0.759-0.704,1.911-1.048,3.518-1.048h8.607c1.605,0,2.756,0.343,3.52,1.048
		c0.804,0.746,1.193,1.899,1.193,3.529v6.161c0,1.63-0.39,2.782-1.191,3.525c-0.766,0.708-1.916,1.052-3.521,1.052H270.334z
		 M277.31,129.114v-3.782h-5.344v3.782H277.31z"/>
	<path class="st0" d="M267.435,124.199c0-1.088,0.204-1.82,0.611-2.198c0.407-0.377,1.171-0.566,2.288-0.566h8.607
		c1.117,0,1.881,0.189,2.289,0.566c0.406,0.378,0.61,1.11,0.61,2.198v6.161c0,1.088-0.204,1.82-0.61,2.197
		c-0.408,0.377-1.172,0.566-2.289,0.566h-8.607c-1.117,0-1.881-0.189-2.288-0.566c-0.407-0.377-0.611-1.109-0.611-2.197V124.199z
		 M270.153,130.927h8.969v-7.407h-8.969V130.927z"/>
	<path d="M286.666,134.938v-15.315H296c2.603,0,4.677,0.663,6.16,1.971c1.55,1.366,2.336,3.256,2.336,5.618
		c0,1.47-0.344,2.833-1.021,4.053c-0.785,1.365-1.883,2.346-3.275,2.938c-1.182,0.495-2.782,0.735-4.901,0.735H286.666z
		 M294.709,129.114c1.934,0,2.647-0.339,2.864-0.484c0.124-0.084,0.487-0.326,0.487-1.464c0-1.269-0.293-1.834-2.037-1.834h-3.013
		v3.782H294.709z"/>
	<path class="st0" d="M288.479,133.124v-11.689H296c2.16,0,3.814,0.507,4.962,1.518c1.148,1.012,1.722,2.433,1.722,4.259
		c0,1.164-0.265,2.222-0.793,3.173c-0.574,0.996-1.375,1.714-2.401,2.151c-0.937,0.393-2.334,0.589-4.191,0.589H288.479z
		 M291.198,130.927h3.511c1.797,0,3.088-0.265,3.874-0.793c0.86-0.574,1.291-1.564,1.291-2.968c0-2.432-1.283-3.646-3.851-3.646
		h-4.825V130.927z"/>
	<path d="M311.109,134.938c-1.598,0-2.748-0.341-3.516-1.038c-0.82-0.744-1.22-1.902-1.22-3.539v-1.792l1.117-0.232
		c-0.429-0.708-0.64-1.648-0.64-2.847v-1.29c0-1.632,0.391-2.785,1.194-3.529c0.76-0.704,1.911-1.048,3.518-1.048h6.638
		c1.525,0,2.646,0.316,3.42,0.969c0.858,0.723,1.293,1.867,1.293,3.404v1.685l-0.551,0.129c0.476,0.722,0.709,1.692,0.709,2.944
		v1.607c0,1.637-0.398,2.795-1.218,3.539c-0.769,0.697-1.919,1.038-3.518,1.038H311.109z"/>
	<path class="st0" d="M318.699,123.474h-7.681v2.515h7.312c1.12,0,1.889,0.189,2.305,0.566c0.416,0.378,0.625,1.11,0.625,2.198
		v1.607c0,1.088-0.208,1.82-0.624,2.197c-0.415,0.377-1.181,0.566-2.299,0.566h-7.227c-1.117,0-1.883-0.189-2.298-0.566
		c-0.415-0.377-0.624-1.109-0.624-2.197v-0.317l2.401-0.498v1.382h8.268v-2.673h-7.294c-1.117,0-1.881-0.189-2.287-0.567
		c-0.408-0.377-0.612-1.109-0.612-2.197v-1.29c0-1.088,0.204-1.82,0.612-2.198c0.406-0.377,1.17-0.566,2.287-0.566h6.638
		c1.072,0,1.824,0.182,2.254,0.543c0.431,0.363,0.645,1.035,0.645,2.018v0.249l-2.401,0.565V123.474z"/>
</g>
<linearGradient id="SVGID_37_" gradientUnits="userSpaceOnUse" x1="329.8629" y1="16.9494" x2="469.5754" y2="80.6145">
	<stop  offset="0" style="stop-color:#FFF0BA"/>
	<stop  offset="0.1963" style="stop-color:#FCDA00"/>
	<stop  offset="0.6442" style="stop-color:#E71E25"/>
	<stop  offset="1" style="stop-color:#210000"/>
</linearGradient>
<path class="st44" d="M315.852,23.489c0,0,14.069-0.288,22.108-3.445c7.444-2.924,16.079-6.891,23.426-1.248
	c0,0-2.751-2.484-9.355-1.91C345.425,17.459,331.645,26.934,315.852,23.489z"/>
<linearGradient id="SVGID_38_" gradientUnits="userSpaceOnUse" x1="303.8853" y1="27.0916" x2="313.2404" y2="41.3405">
	<stop  offset="0" style="stop-color:#FFF0BA"/>
	<stop  offset="0.1963" style="stop-color:#FCDA00"/>
	<stop  offset="0.6442" style="stop-color:#E71E25"/>
	<stop  offset="1" style="stop-color:#210000"/>
</linearGradient>
<path class="st45" d="M305.103,22.753c0,0-6.44,3.304,0,12.357C305.103,35.11,301.247,28.334,305.103,22.753z"/>
</svg>
