<svg xmlns="http://www.w3.org/2000/svg" viewBox="0 0 201.83 44.7"><path d="M83.71,28.71c4.11,3.27-.25,5.8-4.8,7.56-32,9.62-62.45-1.19-62.45-1.19s45.15,20.48,84.58,1,75.53-2.52,75.53-2.52-18.35-10.94-60.49-10.94c0,0-55,.15-55,.15s16.57,1.16,22.63,6" fill="#8a1f03"/><polygon points="0 18.14 5.47 18.14 5.47 11.87 12.42 11.87 12.42 7.23 5.47 7.23 5.47 4.51 18.33 4.51 18.33 0 0 0 0 18.14 0 18.14" fill="#8a1f03"/><polygon points="27.54 18.15 33.02 18.15 33.02 0 27.54 0 27.54 18.15 27.54 18.15" fill="#8a1f03"/><path d="M63.24,7.89V4c0-1.5-.58-4-4.52-4H43.77V18.14h5.41V11.91h2.5l6.65,6.23h8.12L58.83,11.9c3.83-.05,4.41-2.52,4.41-4M49.18,4.5H57a2.17,2.17,0,0,1,.86.09h0a1,1,0,0,1,.06.39V7c0,.28-.06.4-.08.41a2.8,2.8,0,0,1-.83.08h-7.8V4.5Z" fill="#8a1f03"/><polygon points="80.9 13.4 80.9 10.95 88.52 10.95 88.52 6.49 80.9 6.49 80.9 4.46 93.95 4.46 93.95 0 75.43 0 75.43 18.14 94.11 18.14 94.11 13.4 80.9 13.4 80.9 13.4" fill="#8a1f03"/><polygon points="111.07 0 105.6 0 105.6 18.15 123.45 18.15 123.45 13.4 111.07 13.4 111.07 0 111.07 0" fill="#9a8b7d"/><polygon points="132.09 18.15 137.56 18.15 137.56 0 132.09 0 132.09 18.15 132.09 18.15" fill="#9a8b7d"/><path d="M163.45,9.49l.05.8c-.15-.13-.26-.24-.42-.37L151.25,0h-3.74V18.14h5.09V8.4c0-.16,0-.37,0-.55L164.8,18.14h3.74V0h-5.09V9.49Z" fill="#9a8b7d"/><polygon points="184.6 13.4 184.6 10.95 192.21 10.95 192.21 6.49 184.6 6.49 184.6 4.46 197.65 4.46 197.65 0 179.13 0 179.13 18.14 197.81 18.14 197.81 13.4 184.6 13.4 184.6 13.4" fill="#9a8b7d"/><path d="M198.4,1.75h0a1.72,1.72,0,0,1,3.43,0h0a1.72,1.72,0,1,1-3.43,0m3.2,0h0a1.49,1.49,0,1,0-3,0h0a1.46,1.46,0,0,0,1.48,1.48,1.48,1.48,0,0,0,1.49-1.49M199.43.79h.8a.77.77,0,0,1,.53.19.46.46,0,0,1,.15.35h0a.53.53,0,0,1-.47.52l.56.72h-.33l-.52-.67h-.46v.67h-.26V.79Zm.78.88c.25,0,.42-.11.42-.32h0c0-.18-.15-.31-.41-.31h-.53v.64Z" fill="#9a8b7d"/><path d="M119.7,44.62V38.43l-2.13,4.51h-1l-2.18-4.51v6.19h-1.41V35.37h1.41l2.7,5.75,2.65-5.75h1.41v9.25Z"/><path d="M128.12,44.62V44a2.4,2.4,0,0,1-1.76.74,2.24,2.24,0,0,1-1.62-.6,2.41,2.41,0,0,1-.67-1.86V38h1.33v4c0,1,.58,1.47,1.32,1.47a1.32,1.32,0,0,0,1.37-1.47V38h1.33v6.59Z"/><path d="M134.07,44.62a1.68,1.68,0,0,1-1.81-1.82V35.37h1.33v7.35c0,.51.18.77.71.77h.59v1.13Z"/><path d="M139.09,44.62a1.71,1.71,0,0,1-1.81-1.83V39.16h-.75v-1h.75v-2h1.33v2h1.27v1h-1.27v3.56c0,.48.23.77.72.77h.55v1.13Z"/><path d="M142.31,36.73v-1.4h1.4v1.4Zm0,7.89V38h1.33v6.59Z"/><path d="M157.38,44.62V38.43l-2.13,4.51h-1L152,38.43v6.19h-1.4V35.37H152l2.71,5.75,2.65-5.75h1.4v9.25Z"/><path d="M161.77,36.73v-1.4h1.41v1.4Zm0,7.89V38h1.33v6.59Z"/><path d="M168.16,44.7a3.62,3.62,0,0,1-2.77-1l.87-.87a2.57,2.57,0,0,0,1.9.69c.8,0,1.44-.29,1.44-.91,0-.44-.25-.73-.89-.78l-1.05-.09c-1.23-.11-1.95-.67-1.95-1.82s1.11-2,2.48-2a3.64,3.64,0,0,1,2.45.74l-.83.85a2.52,2.52,0,0,0-1.63-.48c-.79,0-1.2.35-1.2.84s.21.69.91.76l1,.09c1.24.1,2,.69,2,1.86C170.9,44,169.73,44.7,168.16,44.7Z"/><path d="M175.34,44.7a3.62,3.62,0,0,1-2.77-1l.88-.87a2.56,2.56,0,0,0,1.89.69c.81,0,1.45-.29,1.45-.91,0-.44-.25-.73-.89-.78l-1.05-.09c-1.24-.11-1.95-.67-1.95-1.82s1.1-2,2.48-2a3.64,3.64,0,0,1,2.45.74l-.84.85a2.48,2.48,0,0,0-1.62-.48c-.79,0-1.2.35-1.2.84s.21.69.91.76l1,.09c1.24.1,2,.69,2,1.86C178.09,44,176.92,44.7,175.34,44.7Z"/><path d="M180.44,36.73v-1.4h1.4v1.4Zm0,7.89V38h1.32v6.59Z"/><path d="M189.1,43.92a2.68,2.68,0,0,1-2,.78,2.63,2.63,0,0,1-2-.78,3.49,3.49,0,0,1-.78-2.6,3.48,3.48,0,0,1,.78-2.59,2.63,2.63,0,0,1,2-.78,2.68,2.68,0,0,1,2,.78,3.48,3.48,0,0,1,.78,2.59A3.49,3.49,0,0,1,189.1,43.92Zm-1-4.41a1.35,1.35,0,0,0-1-.38,1.3,1.3,0,0,0-1,.38,2.58,2.58,0,0,0-.45,1.81,2.59,2.59,0,0,0,.45,1.81,1.35,1.35,0,0,0,1,.39,1.4,1.4,0,0,0,1-.39,2.59,2.59,0,0,0,.45-1.81A2.58,2.58,0,0,0,188.1,39.51Z"/><path d="M196.47,44.62v-4a1.29,1.29,0,0,0-1.33-1.47,1.31,1.31,0,0,0-1.36,1.47v4h-1.33V38h1.3v.66a2.38,2.38,0,0,1,1.76-.74,2.27,2.27,0,0,1,1.62.6,2.41,2.41,0,0,1,.66,1.86v4.21Z"/></svg>