<?xml version="1.0" encoding="utf-8"?>
<!-- Generator: Adobe Illustrator 21.1.0, SVG Export Plug-In . SVG Version: 6.00 Build 0)  -->
<svg version="1.1" id="Layer_1" xmlns="http://www.w3.org/2000/svg" xmlns:xlink="http://www.w3.org/1999/xlink" x="0px" y="0px"
	 viewBox="0 0 288 131.8" style="enable-background:new 0 0 288 131.8;" xml:space="preserve">
<metadata><?xpacket begin="﻿" id="W5M0MpCehiHzreSzNTczkc9d"?>
<x:xmpmeta xmlns:x="adobe:ns:meta/" x:xmptk="Adobe XMP Core 5.6-c137 79.159768, 2016/08/11-13:24:42        ">
   <rdf:RDF xmlns:rdf="http://www.w3.org/1999/02/22-rdf-syntax-ns#">
      <rdf:Description rdf:about=""/>
   </rdf:RDF>
</x:xmpmeta>
                                                                                                    
                                                                                                    
                                                                                                    
                                                                                                    
                                                                                                    
                                                                                                    
                                                                                                    
                                                                                                    
                                                                                                    
                                                                                                    
                                                                                                    
                                                                                                    
                                                                                                    
                                                                                                    
                                                                                                    
                                                                                                    
                                                                                                    
                                                                                                    
                                                                                                    
                                                                                                    
                           
<?xpacket end="w"?></metadata>
<style type="text/css">
	.st0{fill:#066F45;}
</style>
<g id="Plus">
	<polygon class="st0" points="91.5,67.7 63,67.7 63,39.9 27.9,39.9 27.9,67.7 0.1,67.7 0.1,100.6 27.9,100.6 27.9,127.6 63,127.6 
		63,100.6 91.5,100.6 	"/>
</g>
<path d="M96.2,100.6c32.9,0,55.6-27.2,55.6-46.8c0-40.9-38.4-52.1-51.2-52.1s-60.3,0-89.5,0l14.6,33.4c25.2,0,50.8,0,62.5,0
	s28.5,1.6,28.5,16c0,14.3-16.4,16.5-20.8,16.5L96.2,100.6z"/>
<path d="M247.3,1.7h40.5V130h-40.5V1.7z"/>
<path d="M157,52c2.2-10.1,8.4-20.7,25.1-20.7c9.4,0,17.3,6.5,18.8,15.7H239c-5.8-29.6-26.6-47-59.4-47c-13.3,0-27.7,4-39.5,13
	C149.5,21.7,156.5,34.4,157,52z"/>
<path d="M187.9,59.5v27h17.5c-2,9.3-11.4,13.9-20.6,13.9c-24.2,0-29.1-20.6-29.1-32.4c0-1.3,0-3.1,0-5.1
	c-3.7,13.6-15.1,28.7-32.3,36.9c9.8,19.2,28.7,32,54.1,32c14.1,0,27.8-4.8,36.7-15.9l1.3,12.9h25.1V59.5H187.9z"/>
</svg>
